<svg width="20" height="20" viewBox="0 0 12 12" fill="none" xmlns="http://www.w3.org/2000/svg">
<g clip-path="url(#clip0_179_617)">
<path d="M8.1697 4.66122C8.3717 4.47294 8.38285 4.15656 8.19455 3.95455C8.0063 3.75254 7.6899 3.74141 7.4879 3.92969L6.02485 5.2933L4.66122 3.83024C4.47294 3.62823 4.15656 3.6171 3.95455 3.80538C3.75254 3.99365 3.74141 4.31004 3.92969 4.51205L5.2933 5.9751L3.83024 7.33875C3.62823 7.527 3.6171 7.8434 3.80538 8.0454C3.99365 8.2474 4.31004 8.25855 4.51205 8.07025L5.9751 6.70665L7.33875 8.1697C7.527 8.3717 7.8434 8.38285 8.0454 8.19455C8.2474 8.0063 8.25855 7.6899 8.07025 7.4879L6.70665 6.02485L8.1697 4.66122Z" fill="#fff"/>
<path fill-rule="evenodd" clip-rule="evenodd" d="M0.5 6C0.5 2.96244 2.96244 0.5 6 0.5C9.03755 0.5 11.5 2.96244 11.5 6C11.5 9.03755 9.03755 11.5 6 11.5C2.96244 11.5 0.5 9.03755 0.5 6ZM6 10.5C3.51472 10.5 1.5 8.4853 1.5 6C1.5 3.51472 3.51472 1.5 6 1.5C8.4853 1.5 10.5 3.51472 10.5 6C10.5 8.4853 8.4853 10.5 6 10.5Z" fill="#fff"/>
</g>
<defs>
<clipPath id="clip0_179_617">
<rect width="40" height="40" fill="white"/>
</clipPath>
</defs>
</svg>
