<svg width="206" height="205" viewBox="0 0 206 205" fill="none" xmlns="http://www.w3.org/2000/svg">
<path fill-rule="evenodd" clip-rule="evenodd" d="M87.656 16.7336C87.4459 16.7556 87.163 16.7984 87.0273 16.8288C86.8916 16.8592 86.6221 16.9193 86.4285 16.9625C85.9775 17.063 85.085 17.3372 85.0228 17.3943C84.9966 17.4185 84.9449 17.4383 84.908 17.4383C84.7618 17.4383 83.3516 18.1946 83.2349 18.3355C83.2211 18.3522 83.0853 18.4581 82.9332 18.5708C82.5301 18.8694 81.9614 19.467 81.5966 19.9757C81.1715 20.5681 80.5966 21.7299 80.4469 22.299C80.4287 22.3679 80.3788 22.5482 80.3359 22.6998C80.121 23.4591 79.9661 24.5964 79.966 25.4165C79.9658 26.151 80.1169 27.3986 80.2925 28.1117C80.434 28.6871 80.6424 29.398 80.7331 29.615C80.856 29.9091 80.9089 30.0359 80.9788 30.2038C81.1085 30.5155 81.2126 30.7144 81.496 31.1922C82.3595 32.6478 83.4082 33.5879 85.0274 34.358C85.5602 34.6113 85.7003 34.6603 86.5291 34.8826C88.7131 35.4686 91.5389 35.0474 93.5953 33.8295C95.0429 32.972 96.1648 31.5151 96.5896 29.9407C96.664 29.6651 96.7356 29.4024 96.7488 29.357C96.7676 29.2922 96.715 29.2616 96.5042 29.2147C96.3565 29.1819 96.0966 29.1429 95.9267 29.128L95.6179 29.1011L95.5654 29.3205C95.4069 29.983 95.1158 30.6263 94.6726 31.2937C94.1276 32.1146 93.447 32.6782 92.3379 33.2273C91.702 33.5421 90.6331 33.7692 89.773 33.7723C88.7982 33.7758 87.8799 33.5005 87.0748 32.9634C86.7408 32.7406 85.8401 31.8309 85.6743 31.5491C85.5998 31.4224 85.5184 31.3188 85.4933 31.3188C85.4683 31.3188 85.4478 31.2958 85.4478 31.2676C85.4478 31.2395 85.3861 31.1212 85.3108 31.0046C85.1539 30.7619 85.1141 30.6904 84.8937 30.2563C84.8056 30.0827 84.7155 29.9053 84.6936 29.8621C84.5478 29.5753 84.1219 28.4465 84.0142 28.0616C83.9718 27.91 83.9049 27.6732 83.8655 27.5354C83.6537 26.794 83.6233 26.6526 83.6665 26.6115C83.6919 26.5874 83.8711 26.5431 84.0647 26.513C84.2584 26.4828 84.6657 26.412 84.97 26.3556C85.2743 26.2991 85.6364 26.2343 85.7747 26.2115C86.4504 26.1002 87.3219 25.9481 87.6607 25.8823C87.8681 25.842 88.1058 25.7998 88.1888 25.7885C88.3833 25.7621 88.9686 25.6505 89.9742 25.4481C90.287 25.3851 91.53 25.0751 91.7596 25.0028C94.1235 24.2581 94.9267 23.7176 95.3312 22.5996C95.4659 22.2275 95.471 20.9802 95.3392 20.6768C95.2928 20.5701 95.2549 20.4513 95.2549 20.4129C95.2549 20.333 94.8184 19.3857 94.7626 19.3445C94.7424 19.3296 94.6661 19.2255 94.5931 19.1131C94.3489 18.7374 93.5854 18.0373 93.1694 17.8078C92.2245 17.2863 91.6691 17.077 90.5777 16.8312C90.0927 16.722 88.3292 16.6631 87.656 16.7336ZM87.6858 17.819C86.8796 17.8989 86.1378 18.1641 85.4729 18.61C85.1281 18.8412 84.4388 19.5513 84.1887 19.933C83.9191 20.3444 83.6269 20.9895 83.5115 21.4286C83.2437 22.4466 83.1739 23.6585 83.3193 24.7643C83.4154 25.4954 83.3642 25.4493 83.9502 25.3334C84.1515 25.2935 84.4859 25.2356 84.6934 25.2047C84.9009 25.1738 85.2517 25.117 85.4729 25.0786C85.6942 25.0401 86.1016 24.9725 86.3782 24.9284C86.6548 24.8842 87.0735 24.8143 87.3086 24.773C87.5438 24.7317 87.8719 24.6752 88.0379 24.6474C89.1315 24.464 90.2211 24.1616 90.7768 23.8874C91.2121 23.6726 91.7403 23.1572 91.9226 22.7694C92.0449 22.5092 92.0633 22.4039 92.0783 21.8779C92.0952 21.2819 92.0699 21.108 91.8839 20.5438C91.6928 19.9639 91.1805 19.1464 90.7686 18.7639C90.3233 18.3505 89.7883 18.0505 89.2517 17.9136C88.9445 17.8352 88.0608 17.7817 87.6858 17.819ZM144.781 18.8303C144.58 19.0172 144.183 19.3724 143.899 19.6196C142.99 20.4087 142.715 20.6504 142.304 21.0221C142.083 21.2221 141.801 21.4694 141.677 21.5717C141.554 21.674 141.271 21.9216 141.049 22.122C140.508 22.6087 139.925 23.1252 139.263 23.702C138.583 24.2944 137.998 24.8112 137.476 25.2809C137.255 25.48 136.933 25.7644 136.762 25.9127C136.591 26.0611 136.132 26.4643 135.742 26.8089C135.352 27.1534 134.776 27.6607 134.461 27.9363C133.738 28.5695 133.161 29.0802 132.648 29.541C132.426 29.7397 132.087 30.0407 131.893 30.2098C131.568 30.4936 131.28 30.7467 129.648 32.1818C129.326 32.4651 128.819 32.911 128.521 33.1728C128.223 33.4346 127.921 33.7052 127.849 33.7741C127.778 33.843 127.549 34.0456 127.342 34.2242C127.134 34.4029 126.795 34.7048 126.587 34.8952C125.98 35.4531 126.129 35.4496 125.097 34.9297C124.603 34.6809 124.175 34.4601 124.145 34.439C124.026 34.3529 123.759 34.2253 123.704 34.228C123.653 34.2306 123.145 35.1754 123.18 35.2037C123.187 35.2096 123.736 35.4875 124.4 35.8212C125.064 36.1549 125.63 36.4453 125.658 36.4666C125.686 36.4877 126.127 36.7157 126.639 36.9731C127.15 37.2305 128.069 37.6984 128.681 38.0129L129.794 38.5848L129.862 38.4219C129.9 38.3323 129.931 38.1072 129.931 37.9216C129.932 37.5939 129.926 37.5786 129.731 37.3873C129.552 37.2121 129.109 36.9639 127.847 36.3304L127.522 36.1673L127.646 36.0691C127.714 36.0151 127.95 35.8075 128.172 35.6077C128.393 35.408 128.777 35.0659 129.025 34.8476C129.272 34.6293 129.534 34.3943 129.606 34.3254C129.735 34.2022 130.287 33.7138 131.363 32.7719C132.019 32.1969 132.699 31.5912 133.283 31.0604C133.522 30.8436 133.773 30.6223 133.842 30.5686L133.966 30.4709L134.338 30.6623C134.542 30.7675 135.14 31.0735 135.665 31.3421C136.191 31.6107 137.028 32.0398 137.526 32.2956C138.968 33.0364 140.498 33.8155 141.097 34.1141C141.401 34.2657 141.656 34.3945 141.664 34.4002C141.671 34.4058 141.656 34.5774 141.629 34.7814C141.603 34.9853 141.545 35.513 141.5 35.9539C141.455 36.3949 141.386 37.0056 141.346 37.311C141.306 37.6165 141.273 37.9434 141.274 38.0376C141.274 38.1318 141.241 38.4682 141.201 38.7851C141.16 39.1021 141.103 39.6207 141.073 39.9377C141.023 40.4662 140.969 40.9717 140.815 42.3805C140.784 42.663 140.744 42.8942 140.726 42.8942C140.708 42.8942 140.479 42.7845 140.216 42.6504C138.863 41.9591 138.401 41.7388 138.359 41.7649C138.333 41.7808 138.28 41.8553 138.241 41.9305C138.202 42.0058 138.097 42.2098 138.007 42.3839C137.917 42.5581 137.851 42.7055 137.861 42.7116C137.9 42.7363 139.888 43.7437 140.544 44.0709C140.931 44.2643 141.27 44.44 141.298 44.4614C141.326 44.4827 141.677 44.665 142.078 44.8665C143.615 45.6388 145.525 46.6187 145.587 46.6666C145.635 46.7047 145.577 46.7935 145.341 47.0377L145.032 47.3588L145.152 47.4875C145.217 47.5583 145.509 47.8214 145.799 48.0722C146.09 48.3229 146.441 48.6332 146.579 48.7616C146.717 48.8901 147 49.1387 147.208 49.3142C147.415 49.4896 147.63 49.6804 147.685 49.738C147.741 49.7957 148.031 50.0552 148.33 50.3147C149.755 51.55 151.14 52.765 151.206 52.8378C151.234 52.8684 151.449 53.0596 151.684 53.2628C151.919 53.466 152.23 53.7439 152.376 53.8805C152.545 54.0383 152.669 54.1181 152.718 54.0994C152.76 54.0832 152.853 53.9434 152.924 53.7887C153.077 53.4575 153.067 53.1564 152.897 52.9324C152.792 52.7932 151.902 51.995 150.996 51.2275C150.743 51.0125 150.522 50.8073 150.506 50.7715C150.481 50.7146 151.2 49.8233 151.504 49.5337C151.562 49.4786 151.753 49.2644 151.929 49.0577C152.105 48.851 152.355 48.5691 152.485 48.4313C152.614 48.2935 152.934 47.938 153.195 47.6412C154.835 45.7786 155.248 45.3122 155.756 44.7482C156.195 44.261 156.715 43.6764 157.342 42.9671C157.618 42.6537 158.11 42.0976 158.435 41.7313C158.76 41.3649 159.165 40.9073 159.335 40.7144C159.506 40.5215 159.808 40.1832 160.007 39.9627C160.207 39.7422 160.455 39.4661 160.559 39.3491L160.748 39.1363L161.056 39.4139C161.226 39.5666 161.591 39.886 161.868 40.1238C162.145 40.3616 162.416 40.6038 162.471 40.6621C162.527 40.7204 162.804 40.9673 163.088 41.2108C163.372 41.4542 163.746 41.7858 163.918 41.9476C164.091 42.1095 164.259 42.2421 164.292 42.2423C164.35 42.2427 164.604 41.9909 164.89 41.6475L165.031 41.4782L164.858 41.3277C164.762 41.2449 164.424 40.946 164.106 40.6633C163.788 40.3807 163.388 40.0285 163.217 39.8807C162.842 39.5567 161.893 38.7217 161.649 38.501L161.473 38.3421L161.619 38.1502C162.005 37.645 164.058 35.6143 164.705 35.0986C165.161 34.7348 165.708 34.3254 165.739 34.3254C165.751 34.3254 165.847 34.2669 165.952 34.1956C166.218 34.0149 166.998 33.652 167.3 33.5687C167.438 33.5306 167.755 33.5002 168.004 33.5012C168.416 33.503 168.488 33.5186 168.803 33.6743C169.721 34.1268 170.155 34.9275 170.066 36.004C170.048 36.2245 170.003 36.5402 169.965 36.7056C169.7 37.8665 169.671 38.455 169.86 38.8244C169.995 39.0887 170.112 39.2081 170.443 39.4165C170.764 39.619 170.979 39.6855 171.314 39.6864C171.879 39.6878 172.437 39.2833 172.764 38.6348C172.923 38.319 172.928 38.2908 172.924 37.7078C172.92 37.0869 172.873 36.8695 172.608 36.2546C172.416 35.8073 172.109 35.2584 172.005 35.1772C171.988 35.1634 171.891 35.0394 171.791 34.9016C171.584 34.6181 170.672 33.7173 170.367 33.4953C170.257 33.4147 170.155 33.3362 170.141 33.3208C170.079 33.2524 169.598 32.9533 169.269 32.7791C168.656 32.4545 168.171 32.286 167.375 32.1209C166.335 31.9053 165.013 32.0736 163.754 32.5819C163.01 32.8823 162.376 33.243 161.667 33.7704C160.898 34.3419 160.182 35.0221 159.272 36.0448L159.102 36.2359L158.615 35.8193C158.347 35.5902 157.94 35.2361 157.71 35.0323C157.48 34.8286 157.218 34.5974 157.129 34.5187C157.04 34.4399 156.947 34.3755 156.922 34.3755C156.897 34.3755 156.726 34.5427 156.542 34.7471L156.209 35.1186L156.498 35.3915C156.658 35.5416 156.985 35.8343 157.226 36.0419C157.466 36.2495 157.76 36.5092 157.88 36.619C157.999 36.7288 158.16 36.8725 158.238 36.9383L158.381 37.058L158.212 37.2325C158.12 37.3285 157.841 37.6439 157.592 37.9333C157.344 38.2227 157.093 38.5045 157.036 38.5596C156.978 38.6148 156.718 38.9034 156.457 39.201C156.197 39.4986 155.746 40.0105 155.456 40.3386C155.165 40.6666 154.714 41.1785 154.453 41.4762C154.192 41.7738 153.931 42.0623 153.873 42.1175C153.815 42.1726 153.564 42.454 153.316 42.7428C153.068 43.0317 152.819 43.3135 152.763 43.3692C152.706 43.4249 152.457 43.7022 152.209 43.9856C151.962 44.2689 151.51 44.7813 151.206 45.1241C150.902 45.4669 150.439 45.9905 150.177 46.2876C149.354 47.2225 149.015 47.5177 148.496 47.7526C148.144 47.912 147.658 47.9066 147.328 47.7396C147.013 47.5807 146.659 47.3444 146.261 47.0282C145.974 46.8 145.948 46.7643 145.974 46.6274C146.082 46.055 146.051 45.8009 145.849 45.5995C145.755 45.5062 145.248 45.2177 144.648 44.9162C144.416 44.7996 144.206 44.6842 144.182 44.6597C144.156 44.6338 144.168 44.3348 144.212 43.9426C144.253 43.5726 144.323 42.8979 144.366 42.4432C144.41 41.9884 144.477 41.3007 144.516 40.9148C144.555 40.529 144.612 39.9089 144.643 39.5368C144.673 39.1647 144.73 38.5446 144.769 38.1588C144.808 37.7729 144.876 37.0852 144.919 36.6304C144.963 36.1757 145.03 35.4879 145.069 35.1021C145.108 34.7162 145.165 34.0961 145.196 33.724C145.227 33.352 145.284 32.7319 145.322 32.346C145.361 31.9602 145.429 31.2724 145.472 30.8177C145.516 30.3629 145.584 29.6751 145.622 29.2893C145.661 28.9035 145.718 28.2833 145.749 27.9113C145.779 27.5392 145.836 26.9191 145.875 26.5332C146.004 25.2499 146.233 22.8612 146.305 22.0484C146.333 21.7315 146.389 21.1452 146.429 20.7455C146.47 20.3459 146.509 19.8283 146.516 19.5953L146.529 19.1717L146.227 19.0098C145.819 18.7908 145.21 18.4906 145.175 18.4906C145.159 18.4906 144.982 18.6435 144.781 18.8303ZM71.1214 18.64C69.9118 19.0045 69.0565 19.9066 68.6972 21.1965C68.5511 21.7211 68.4768 22.5158 68.5321 22.9629L68.58 23.3513H68.1712C67.7966 23.3513 67.25 23.4195 66.5376 23.5552C66.2402 23.6118 65.417 23.8647 65.1294 23.9877C64.154 24.405 63.3779 24.8568 62.6651 25.4221C62.1344 25.843 61.9519 26.0232 61.5718 26.5021C60.8081 27.464 60.3895 28.3268 60.1224 29.4897C60.0518 29.7973 60.031 30.0889 60.0329 30.7425C60.0353 31.4941 60.0513 31.6563 60.1693 32.1205C60.3267 32.7397 60.4401 33.0334 60.7651 33.6635C61.3094 34.7185 62.1561 35.5401 63.2937 36.1172C63.969 36.4597 65.0363 36.7576 65.9839 36.868L66.3102 36.906L65.9084 37.1544C65.0622 37.6776 64.6512 38.2044 64.4213 39.0607C64.2248 39.7925 64.3562 40.612 64.8191 41.5412C65.1129 42.1312 65.7175 42.7815 66.2591 43.0902C66.6981 43.3405 67.275 43.5456 67.5399 43.5456C67.7771 43.5456 67.7966 43.5669 67.7384 43.7623C67.6216 44.1546 67.4932 44.9363 67.4932 45.2556C67.4932 45.8134 67.6767 46.5342 67.938 47.0032C68.3688 47.7762 68.9913 48.2525 69.9827 48.5674C70.3027 48.669 70.4356 48.6792 71.4412 48.6795C72.5774 48.6797 72.6678 48.6689 73.6038 48.4225C74.742 48.1228 76.1105 47.5195 77.4764 46.715C77.858 46.4903 78.7758 45.897 78.8091 45.8536C78.823 45.8355 78.9135 45.7662 79.0103 45.6995C79.7081 45.2186 80.6919 44.2069 81.1818 43.4666C81.4627 43.0421 81.7467 42.4549 81.8788 42.0255C82.1079 41.2805 82.1675 40.6003 82.055 40.0123C81.7788 38.568 80.9733 37.4655 79.7683 36.8825C79.5515 36.7776 79.2906 36.7115 78.8148 36.6407C78.3692 36.5745 78.214 36.5724 77.7587 36.6263C76.9292 36.7245 75.997 36.9937 75.188 37.3687C74.9806 37.4648 74.7203 37.5842 74.6097 37.634C74.499 37.6837 74.2501 37.7956 74.0564 37.8826C73.6102 38.0832 73.2172 38.2645 72.66 38.5272C72.4174 38.6415 72.2085 38.735 72.1957 38.735C72.1829 38.735 71.9852 38.8223 71.7565 38.9289C71.2038 39.1865 70.1401 39.6763 69.7815 39.8383C69.6709 39.8882 69.4106 40.0069 69.2032 40.1021C68.1065 40.6051 67.9564 40.6616 67.5059 40.7412C66.7681 40.8715 66.2222 40.6126 65.8543 39.9579C65.6275 39.5543 65.6173 39.2001 65.821 38.7969C66.0285 38.386 66.3899 38.0887 67.1029 37.7422C68.1045 37.2554 69.0003 36.8309 69.0257 36.8309C69.0797 36.8309 70.854 35.9507 71.0632 35.8202C71.9915 35.241 72.7168 34.6326 73.1386 34.0793C73.256 33.9252 73.365 33.7879 73.3807 33.7741C73.4381 33.7238 73.7742 33.1902 73.926 32.9082C74.2068 32.3869 74.3412 32.0348 74.5711 31.2185C74.6969 30.7722 74.7051 30.6784 74.7035 29.7152C74.7017 28.648 74.6784 28.4885 74.4098 27.7108C74.367 27.5868 74.3171 27.4402 74.299 27.3851C74.2248 27.16 73.8263 26.4386 73.5483 26.0262C73.2328 25.5584 72.4792 24.7731 72.1453 24.5644C72.0347 24.4953 71.9328 24.4224 71.919 24.4025C71.8197 24.2597 70.5916 23.7143 69.9827 23.5427L69.7312 23.4718L69.7169 22.9921C69.6989 22.388 69.8133 22.0439 70.1523 21.6829C70.5127 21.299 70.7015 21.2202 71.24 21.229C71.5121 21.2335 71.7804 21.2684 71.9128 21.3167C72.1603 21.407 72.7792 21.4245 72.9277 21.3454C73.0747 21.2669 73.4 20.7968 73.468 20.5643C73.586 20.1611 73.5095 19.6967 73.2615 19.3102C73.0798 19.0272 72.8871 18.8645 72.5476 18.7074C72.1522 18.5245 71.5924 18.498 71.1214 18.64ZM110.695 18.671C108.828 18.8241 107.092 20.1698 106.435 21.9732C106.062 22.9948 106.035 24.238 106.364 25.2431C106.868 26.7863 107.906 27.8633 109.513 28.5111C109.894 28.6646 110.746 28.8139 111.233 28.8124C111.563 28.8113 112.303 28.7 112.687 28.5932C113.05 28.4924 113.747 28.1574 114.117 27.9059C114.5 27.6453 115.082 27.0819 115.36 26.7029C115.706 26.2317 116.021 25.5657 116.147 25.0412C116.339 24.2427 116.366 23.7022 116.252 22.9504C116.147 22.2588 116.085 22.0584 115.785 21.4471C115.128 20.1069 113.822 19.0953 112.304 18.7495C112.051 18.6917 111.042 18.6425 110.695 18.671ZM142.752 22.6071C142.667 22.702 142.35 22.9861 140.77 24.382C140.563 24.5653 140.201 24.8899 139.965 25.1035C139.73 25.3171 139.346 25.6585 139.111 25.8622C138.876 26.0659 138.639 26.2794 138.583 26.3366C138.527 26.3938 138.203 26.687 137.861 26.988C137.52 27.2891 136.962 27.7835 136.621 28.0867C136.28 28.3898 135.772 28.839 135.493 29.0848C135.215 29.3306 134.986 29.5457 134.986 29.5628C134.986 29.58 135.298 29.7542 135.678 29.95C136.96 30.6098 137.924 31.1042 138.859 31.5812C139.371 31.8422 140.237 32.2846 140.784 32.5642C141.331 32.8438 141.789 33.0726 141.802 33.0726C141.815 33.0726 141.826 33.0005 141.826 32.9124C141.826 32.8242 141.861 32.4578 141.903 32.0981C142.025 31.06 142.119 30.1889 142.178 29.5398C142.208 29.2091 142.265 28.6567 142.303 28.3122C142.342 27.9676 142.41 27.3363 142.454 26.9091C142.498 26.4819 142.566 25.8392 142.605 25.4809C142.644 25.1227 142.701 24.5589 142.732 24.2282C142.805 23.4516 142.877 22.811 142.913 22.6372C142.946 22.4719 142.883 22.46 142.752 22.6071ZM66.1856 24.8513C66.0335 24.8736 65.7619 24.9405 65.5821 24.9999C65.2739 25.1018 64.6312 25.3913 64.5762 25.4529C64.5624 25.4684 64.4842 25.5149 64.4025 25.5562C64.3209 25.5975 64.0493 25.8342 63.799 26.0823C63.2907 26.5861 63.0299 27.0296 62.861 27.6774C62.7412 28.137 62.7329 29.0402 62.8437 29.5649C62.9579 30.1058 63.1732 30.8403 63.2731 31.0299C63.2983 31.0778 63.3189 31.1398 63.3189 31.1676C63.3189 31.2134 63.4936 31.6104 63.7162 32.0704C63.7876 32.2181 64.122 32.8159 64.2996 33.1136C64.7642 33.8921 65.67 34.8403 66.2926 35.2C67.0381 35.6306 67.9021 35.7748 68.7254 35.606C69.4049 35.4667 69.8576 35.2913 70.3303 34.9842C71.0053 34.5457 71.5298 33.9296 71.7655 33.2981C71.9039 32.9274 72.0175 32.2953 72.0177 31.895C72.0179 31.1916 71.7665 30.0951 71.3921 29.1669C70.4743 26.8917 69.1277 25.3398 67.7165 24.931C67.3877 24.8358 66.579 24.7937 66.1856 24.8513ZM49.1866 35.0546C48.4304 35.1595 47.9823 35.3065 47.1914 35.7092C46.8732 35.8712 46.1318 36.3429 45.9138 36.5221C44.9672 37.3001 43.7483 38.4892 43.3642 39.0093C43.2416 39.1754 43.1256 39.3226 43.1063 39.3364C43.0872 39.3501 42.9799 39.508 42.8679 39.6871C42.1786 40.79 41.9475 41.4887 41.9456 42.4755C41.9441 43.2021 42.0412 43.579 42.3475 44.036C42.8365 44.7656 43.5004 44.9825 44.2324 44.6518C44.6449 44.4655 45.0311 44.0905 45.1205 43.7895C45.2538 43.3412 45.1883 42.8965 44.8636 42.0423C44.7746 41.808 44.6605 41.4698 44.6102 41.2906C44.5598 41.1115 44.4939 40.9014 44.4637 40.8239C44.3128 40.4366 44.4675 39.6836 44.8157 39.1102C45.1499 38.5596 45.4533 38.2805 46.2978 37.7464C46.4815 37.6302 46.8983 37.4469 47.2503 37.3275C47.722 37.1675 48.7537 37.1535 49.1866 37.3012C49.6843 37.4712 50.2496 37.7733 50.5696 38.0406C51.1225 38.5023 51.2752 38.6437 51.4539 38.8591C51.5676 38.9963 51.7913 39.2556 51.9509 39.4354C52.8444 40.4417 52.9894 40.6072 53.0482 40.6877C53.1054 40.7661 53.0657 40.8155 52.6942 41.1271C52.1828 41.5562 50.3796 43.3384 49.9657 43.8239C48.6252 45.3961 47.9517 46.4217 47.4998 47.5792C47.1932 48.3644 47.0742 48.933 47.0743 49.6119C47.0744 50.533 47.3002 51.2281 47.8792 52.0893C48.0917 52.4055 49.0878 53.3984 49.3877 53.5931C49.6349 53.7535 50.0168 53.9474 50.293 54.0528C50.6249 54.1795 51.3482 54.3192 51.6718 54.3192C52.3109 54.3192 53.2691 54.0695 54.0147 53.7088C54.3194 53.5613 54.7113 53.3303 54.7691 53.2641C54.7829 53.2482 54.8961 53.1662 55.0205 53.0817C55.3217 52.8775 56.1195 52.0872 56.3887 51.7266C56.5073 51.5678 56.6164 51.4266 56.6313 51.4129C56.6871 51.3612 56.982 50.8763 56.982 50.8361C56.982 50.8132 57.0126 50.7588 57.0501 50.7153C57.1347 50.617 57.5043 49.68 57.6052 49.3082C57.7813 48.6588 57.811 48.4082 57.8095 47.5794C57.8082 46.8148 57.7787 46.5375 57.6492 46.0763C57.6286 46.003 57.6935 46.0373 57.8925 46.2048C58.3509 46.5908 59.1213 47.0284 59.6475 47.2018C59.9133 47.2894 60.8349 47.324 61.1796 47.2593C62.1385 47.0795 63.1911 46.2035 63.6263 45.2232C64.122 44.1067 63.8828 42.9551 62.828 41.3794L62.5017 40.8918L62.3445 41.0003C62.258 41.0599 62.1081 41.1782 62.0113 41.2633C61.9145 41.3483 61.7824 41.4548 61.7178 41.4998L61.6004 41.5816L61.8376 41.9498C61.968 42.1522 62.1124 42.3743 62.1584 42.4432C62.2395 42.5645 62.4212 42.9352 62.576 43.295C62.6175 43.3915 62.68 43.6296 62.7149 43.8242C62.7699 44.1306 62.7674 44.2157 62.6962 44.4597C62.518 45.0705 61.9849 45.2905 61.3575 45.0121C60.9133 44.815 60.4515 44.4026 59.7228 43.5522C59.5016 43.294 59.1395 42.8735 58.9183 42.6178C58.697 42.3621 58.3349 41.9431 58.1136 41.6867C57.8923 41.4303 57.6773 41.1855 57.6358 41.1425C57.5943 41.0996 57.4159 40.8955 57.2392 40.689C57.0626 40.4825 56.825 40.212 56.711 40.088C56.5971 39.964 56.3342 39.6642 56.1268 39.4217C54.3087 37.2965 53.9132 36.8655 53.3541 36.3999C52.3458 35.5603 51.4865 35.1665 50.3684 35.0317C49.8375 34.9676 49.81 34.9682 49.1866 35.0546ZM78.2308 39.6842C77.6573 39.7519 76.8803 40.0124 75.9424 40.4515C75.7073 40.5615 75.3565 40.7249 75.1629 40.8144C74.2567 41.2337 73.9743 41.3655 73.5535 41.5659C73.3046 41.6844 72.9538 41.8488 72.774 41.9311C72.5942 42.0134 72.2321 42.1822 71.9693 42.306C70.1071 43.1835 69.9118 43.2689 69.4196 43.4214L68.9571 43.5647L68.8933 43.8182C68.8582 43.9579 68.8294 44.3642 68.8293 44.7232C68.8292 45.2696 68.8474 45.4271 68.9425 45.7003C69.0965 46.1427 69.4191 46.5793 69.8035 46.8654C70.3417 47.266 70.6971 47.4083 71.4101 47.5089C72.1511 47.6134 72.9657 47.4851 74.1707 47.074C74.4674 46.9728 74.7668 46.8608 74.836 46.825C74.9051 46.7892 75.2333 46.6287 75.5652 46.4682C75.8972 46.3077 76.1801 46.1639 76.1939 46.1486C76.2077 46.1333 76.3173 46.0706 76.4375 46.0092C76.8849 45.7804 77.9493 45.0396 78.5633 44.5295C80.0356 43.3066 80.7049 42.1612 80.4999 41.2155C80.3662 40.5989 79.9308 40.0098 79.453 39.7992C79.1884 39.6826 78.6631 39.6332 78.2308 39.6842ZM53.7089 41.7841C53.6375 41.8572 53.2485 42.2177 52.8444 42.5852C51.9406 43.4071 50.961 44.4617 50.3929 45.2243C50.1204 45.5902 49.6768 46.4443 49.5993 46.7526C49.4166 47.4793 49.4005 47.7709 49.5135 48.306C49.585 48.6447 49.7711 49.1538 49.8433 49.208C49.8616 49.2218 49.9125 49.3007 49.9563 49.3834C50.1071 49.6681 50.6743 50.2861 51.0906 50.6193C51.9323 51.2929 52.8212 51.5979 53.5743 51.4714C54.0515 51.3913 54.2263 51.3282 54.6408 51.0869C55.2727 50.7191 55.9013 50.0494 56.2719 49.3493C56.6255 48.6812 56.8492 47.7597 56.8472 46.9781C56.8449 46.0486 56.4913 44.8299 56.0183 44.1219C55.9446 44.0116 55.7883 43.8199 55.6708 43.6959C55.5535 43.5719 55.2969 43.2791 55.1008 43.0452C54.9047 42.8113 54.6747 42.5486 54.5896 42.4613C54.5046 42.3741 54.3139 42.1539 54.1658 41.9721C54.0177 41.7902 53.8835 41.6436 53.8676 41.6463C53.8517 41.649 53.7803 41.7111 53.7089 41.7841ZM167.526 44.222C167.492 44.2633 167.319 44.3998 167.143 44.5252C166.966 44.6507 166.822 44.7744 166.822 44.8003C166.822 44.8417 167.248 45.4345 167.325 45.4999C167.364 45.5327 167.804 46.0965 168.029 46.4001C168.126 46.531 168.311 46.7798 168.442 46.953L168.678 47.2678L168.472 47.4236C168.358 47.5093 168.193 47.6358 168.104 47.7047C168.016 47.7736 167.765 47.9638 167.546 48.1274C167.328 48.291 167.137 48.4392 167.124 48.4567C167.11 48.4741 166.965 48.5883 166.802 48.7104C166.488 48.945 166.227 49.1438 165.59 49.634C165.375 49.7993 165.126 49.991 165.036 50.0599C164.947 50.1288 164.698 50.3205 164.483 50.4858C163.846 50.976 163.585 51.1748 163.271 51.4094C163.108 51.5315 162.963 51.6458 162.949 51.6634C162.935 51.681 162.788 51.7938 162.622 51.914C162.456 52.0341 162.309 52.1473 162.295 52.1654C162.282 52.1835 162.166 52.2753 162.039 52.3693C161.788 52.5547 161.361 52.8808 160.535 53.5178C160.245 53.7419 159.84 54.0533 159.635 54.2099C159.43 54.3665 159.125 54.6014 158.956 54.7318C158.787 54.8623 158.547 55.0402 158.423 55.1272C158.298 55.2142 158.174 55.3131 158.145 55.347C158.058 55.453 157.355 55.8094 157.068 55.893C156.262 56.1286 155.804 55.8527 154.59 54.4008L154.47 54.2569L154.057 54.5714C153.831 54.7444 153.645 54.9042 153.645 54.9266C153.645 54.9489 153.709 55.0413 153.787 55.1318C153.866 55.2223 154.108 55.5332 154.326 55.8225C154.544 56.1119 154.737 56.36 154.754 56.3738C154.788 56.4018 155.555 57.4009 155.869 57.8269C155.981 57.9785 156.098 58.1251 156.129 58.1527C156.16 58.1802 156.382 58.4621 156.623 58.779C156.864 59.096 157.279 59.6372 157.545 59.9817C157.811 60.3262 158.122 60.7321 158.235 60.8837C158.348 61.0352 158.457 61.1705 158.477 61.1843C158.51 61.2083 159.126 62.0102 159.622 62.6751C159.75 62.8474 159.891 62.9883 159.934 62.9883C160.027 62.9883 160.325 62.668 160.39 62.498C160.414 62.4334 160.435 62.3153 160.435 62.2357C160.435 61.9667 160.376 61.8734 159.471 60.7019C159.213 60.3676 158.849 59.896 158.662 59.6539L158.323 59.2137L158.533 59.0339C158.648 58.9351 158.837 58.7865 158.954 58.7039C159.281 58.4716 159.753 58.1133 159.781 58.0763C159.795 58.058 159.953 57.9358 160.133 57.8046C160.313 57.6736 160.471 57.5506 160.485 57.5313C160.499 57.5121 160.589 57.4422 160.686 57.3759C160.783 57.3097 160.941 57.1928 161.038 57.1162C161.135 57.0397 161.407 56.8276 161.642 56.6449C161.877 56.4623 162.137 56.2593 162.22 56.1939C162.303 56.1285 162.441 56.0238 162.527 55.9612C162.613 55.8988 162.858 55.7123 163.071 55.5469C163.445 55.2562 163.659 55.0935 164.287 54.6234C164.45 54.5013 164.595 54.3875 164.609 54.3705C164.662 54.3053 165.251 53.8775 165.539 53.6951C165.705 53.59 165.899 53.4641 165.971 53.4154C166.042 53.3667 166.359 53.2034 166.675 53.0528C168.36 52.2487 170.132 52.0446 171.7 52.4739C171.908 52.5307 172.099 52.5971 172.125 52.6214C172.152 52.6457 172.203 52.6656 172.24 52.6656C172.278 52.6656 172.335 52.6884 172.369 52.7163C172.402 52.7441 172.495 52.8156 172.574 52.8752C172.976 53.1758 173.007 53.8467 172.656 54.645C172.428 55.1651 172.338 55.5369 172.335 55.9729C172.333 56.294 172.355 56.442 172.425 56.5742C172.582 56.8717 172.841 57.1549 173.118 57.3319C173.372 57.4943 173.402 57.5012 173.862 57.4999C174.299 57.4988 174.368 57.4847 174.655 57.3396C175.102 57.1137 175.299 56.9504 175.544 56.603C175.859 56.1558 175.925 55.9481 175.925 55.403C175.925 54.6836 175.673 54.0819 175.06 53.3375C174.202 52.297 172.921 51.6217 171.353 51.3843C170.515 51.2576 168.821 51.319 168.356 51.4929C168.243 51.5349 168.618 51.1845 169.037 50.8559C169.188 50.7377 169.481 50.4965 169.689 50.3199C170.308 49.7924 170.356 49.7523 170.644 49.5194C171.086 49.1619 171.298 48.9581 171.298 48.8897C171.298 48.8547 171.257 48.7823 171.208 48.7289C171.158 48.6755 171.018 48.4965 170.896 48.3311C170.775 48.1657 170.648 48.0079 170.616 47.9803C170.561 47.9336 170.365 47.6785 169.94 47.1024C169.71 46.7904 169.274 46.2334 169.235 46.2014C169.218 46.1876 169.002 45.91 168.755 45.5844C167.984 44.5684 167.907 44.4689 167.768 44.3058C167.613 44.1229 167.609 44.1218 167.526 44.222ZM36.7938 45.9046C36.7222 45.9894 36.6636 46.0763 36.6636 46.0977C36.6636 46.1191 36.6081 46.1963 36.5403 46.2692C36.4725 46.3421 36.3434 46.5083 36.2534 46.6387C36.1634 46.769 36.0619 46.91 36.0278 46.9519C35.9936 46.9939 35.8409 47.1974 35.6884 47.4041C35.5359 47.6108 35.3423 47.8701 35.2582 47.9803C35.1741 48.0906 34.9309 48.4175 34.7176 48.7069C34.0636 49.5945 33.4873 50.374 33.3025 50.6211L33.1263 50.8566L32.9713 50.7488C32.886 50.6895 32.737 50.5811 32.6402 50.5079C32.4787 50.3858 32.1829 50.1687 30.8312 49.1804C30.5694 48.9889 30.1205 48.6575 29.8339 48.4438C29.5473 48.2302 29.2936 48.0555 29.2702 48.0555C29.2468 48.0555 29.1571 48.2415 29.071 48.4689C28.9848 48.6963 28.8954 48.9274 28.8722 48.9825C28.8489 49.0376 28.7958 49.1729 28.754 49.2832C28.6805 49.4772 28.6009 49.6842 28.2703 50.5402C28.1842 50.763 28.1138 50.9716 28.1138 51.0037C28.1138 51.0815 28.2688 51.232 28.5019 51.3802C28.6065 51.4468 28.7408 51.5433 28.8003 51.5949C28.8597 51.6463 29.0835 51.8125 29.2976 51.9641C29.5116 52.1157 29.7774 52.3139 29.8883 52.4047C29.9992 52.4954 30.1375 52.5947 30.1957 52.6252C30.2539 52.6556 30.3129 52.6953 30.3267 52.7132C30.3405 52.7312 30.5329 52.8784 30.7542 53.0403C30.9755 53.2023 31.1745 53.3498 31.1964 53.3682C31.2184 53.3865 31.1377 53.5348 31.0172 53.6975C30.8966 53.8603 30.6393 54.2077 30.4454 54.4696C30.2515 54.7314 29.9644 55.1192 29.8074 55.3313C29.6505 55.5434 29.522 55.7289 29.522 55.7434C29.522 55.7579 29.5877 55.8038 29.6681 55.8451C29.7485 55.8865 29.8447 55.9506 29.8819 55.9876C29.9191 56.0245 30.049 56.1264 30.1706 56.2141L30.3916 56.3735L30.5073 56.2107C30.5709 56.1212 30.6913 55.9578 30.7748 55.8476C30.8584 55.7374 31.1678 55.3202 31.4624 54.9206C31.757 54.5209 32.0276 54.1627 32.0637 54.1246C32.1188 54.0662 32.2315 54.1297 32.7745 54.5248C33.477 55.036 34.4304 55.7414 34.5525 55.8402C34.5946 55.8744 34.7417 55.9788 34.8794 56.0724C35.017 56.166 35.1374 56.2614 35.1468 56.2842C35.1562 56.3071 35.226 56.3577 35.3018 56.3968C35.3777 56.4359 35.5309 56.5425 35.6424 56.6338C35.7539 56.725 36.0209 56.9237 36.2357 57.0753C36.4506 57.2269 36.6545 57.3778 36.6888 57.4107C36.7232 57.4436 36.8277 57.5229 36.9212 57.5871C37.0147 57.6513 37.2722 57.8372 37.4934 58.0002C37.7147 58.1633 38.1561 58.4881 38.4742 58.7221C38.7923 58.956 39.3128 59.3391 39.6309 59.5733C39.949 59.8075 40.3451 60.0976 40.511 60.218C40.677 60.3385 40.8694 60.4799 40.9385 60.5324C41.5724 61.0135 42.0228 61.2925 42.6995 61.6234C43.459 61.9946 44.4101 62.2362 45.1128 62.2364C45.6104 62.2365 46.525 62.0489 46.6542 61.9202C46.6732 61.9013 46.7184 61.8859 46.7548 61.8859C46.7913 61.8859 46.9737 61.7927 47.1604 61.6789C48.4128 60.9151 49.3085 59.6967 49.5686 58.4032C49.6929 57.7847 49.6358 56.9857 49.4193 56.3126C49.3222 56.0108 48.9304 55.2086 48.7482 54.9386C48.3933 54.4127 48.2123 54.1724 47.9623 53.8956L47.6928 53.5973L47.2593 53.9925C46.9988 54.2301 46.8414 54.4091 46.8648 54.4412C47.3603 55.1206 47.9004 56.1026 48.1022 56.6913C48.3737 57.483 48.3701 58.3644 48.0933 58.9043C47.9621 59.1602 47.5663 59.5317 47.2503 59.6955C46.967 59.8424 46.9147 59.8521 46.3953 59.8542C45.9031 59.8561 45.8005 59.8405 45.4649 59.7118C44.8818 59.4882 44.4662 59.227 43.1843 58.2779C41.961 57.3723 41.8622 57.2998 41.5438 57.0753C41.368 56.9513 41.1832 56.8111 41.1333 56.7638C41.0834 56.7165 40.9569 56.6233 40.8522 56.5568C40.7476 56.4902 40.6133 56.3936 40.5538 56.3421C40.4944 56.2906 40.2706 56.1245 40.0565 55.9729C39.8425 55.8213 39.5766 55.623 39.4657 55.5323C39.3549 55.4415 39.2165 55.3423 39.1583 55.3118C39.1002 55.2813 39.0412 55.2412 39.0274 55.2228C39.0136 55.2043 38.8197 55.0555 38.5965 54.8921C38.3734 54.7286 37.8674 54.3581 37.472 54.0687C37.0767 53.7793 36.3872 53.2719 35.9397 52.9412C35.4923 52.6105 35.068 52.302 34.9968 52.2557C34.9255 52.2093 34.8357 52.1406 34.7972 52.1029C34.7588 52.0653 34.6142 51.9576 34.4759 51.8636C34.3376 51.7696 34.1744 51.6467 34.1134 51.5904L34.0023 51.488L34.2772 51.1122C34.4284 50.9055 34.6005 50.68 34.6598 50.6111C34.719 50.5422 34.8264 50.3962 34.8983 50.2868C34.9702 50.1773 35.063 50.0509 35.1045 50.006C35.146 49.961 35.292 49.7687 35.4289 49.5786C35.5658 49.3886 35.9373 48.8836 36.2546 48.4564C37.6805 46.5365 37.7701 46.4125 37.7701 46.3573C37.7701 46.3061 37.0317 45.7504 36.9636 45.7504C36.9418 45.7504 36.8654 45.8198 36.7938 45.9046ZM185.43 58.15C185.024 58.2262 184.813 58.3154 184.433 58.5728C184.143 58.7688 183.821 59.1122 183.821 59.2247C183.821 59.2552 183.798 59.2801 183.771 59.2801C183.743 59.2801 183.72 59.3105 183.72 59.3476C183.72 59.3847 183.682 59.491 183.636 59.5837C183.573 59.7094 183.55 59.8936 183.548 60.3055C183.544 60.9162 183.625 61.2029 183.947 61.7105C184.268 62.2168 184.664 62.479 185.304 62.6107C186.44 62.8446 187.641 62.2063 188.024 61.1646C188.164 60.7838 188.153 60.0078 188.001 59.6058C187.677 58.7497 187.087 58.2619 186.22 58.1349C186.005 58.1033 185.812 58.08 185.793 58.0831C185.773 58.0862 185.61 58.1163 185.43 58.15ZM19.3125 58.4499C18.9439 58.552 18.6605 58.7215 18.3556 59.0222C17.8308 59.5395 17.6346 60.0336 17.6608 60.7728C17.6833 61.4096 17.8501 61.7836 18.3205 62.2523C19.0473 62.9764 20.0577 63.1907 20.8861 62.7964C21.8735 62.3262 22.4954 61.069 22.2078 60.1246C21.8913 59.0855 20.9194 58.3673 19.8507 58.3826C19.6792 58.3851 19.437 58.4153 19.3125 58.4499ZM178.087 59.0471C178.018 59.084 177.823 59.1872 177.654 59.2766L177.346 59.439L177.46 59.6477C177.686 60.059 178.817 62.3126 178.817 62.351C178.817 62.3987 178.891 62.359 177.244 63.1919C176.505 63.5656 174.994 64.3314 173.888 64.8936C168.691 67.5341 166.793 68.477 166.472 68.5788C166.094 68.6983 165.432 68.6957 165.149 68.5736C164.682 68.3719 164.284 67.9089 163.771 66.9702C163.665 66.7762 163.555 66.5794 163.526 66.5327C163.48 66.4561 163.43 66.4698 163.023 66.6734C162.775 66.7974 162.566 66.9155 162.559 66.936C162.552 66.9564 162.634 67.142 162.742 67.3484C162.849 67.5548 163.293 68.4227 163.728 69.2771C164.163 70.1315 164.952 71.6761 165.48 72.7096C166.009 73.7431 166.54 74.7843 166.66 75.0233L166.879 75.458L167.05 75.3577C167.144 75.3025 167.289 75.1794 167.373 75.0842C167.504 74.9364 167.526 74.8707 167.526 74.6367C167.526 74.3884 167.475 74.2619 166.994 73.3035C166.538 72.3958 166.472 72.2346 166.533 72.1744C166.571 72.1359 167.133 71.8384 167.781 71.5134C168.429 71.1884 169.672 70.5607 170.544 70.1185C171.415 69.6764 172.909 68.9198 173.863 68.4372C177.194 66.753 180.259 65.1992 181.117 64.7603L181.256 64.6897L180.632 63.4756C179.922 62.0925 178.571 59.4485 178.43 59.1674C178.328 58.9629 178.278 58.9454 178.087 59.0471ZM24.7693 64.5296C24.0225 66.0108 23.3858 67.2564 23.3545 67.2977C23.1865 67.5196 23.2161 67.5684 23.6502 67.7855C23.8784 67.8996 24.0935 68.0001 24.1282 68.0087C24.2045 68.0276 24.1733 68.0839 25.0015 66.4376L25.6736 65.1015L28.6414 66.5939C30.2737 67.4147 32.8992 68.7347 34.4759 69.5272C36.0526 70.3197 37.4784 71.0475 37.6443 71.1445C38.0227 71.3657 38.5475 71.8696 38.6741 72.1334C38.8576 72.5158 38.8987 72.791 38.8264 73.1535C38.7903 73.3346 38.7174 73.585 38.6645 73.7101C38.6116 73.835 38.5494 73.9824 38.5263 74.0375C38.4027 74.3331 38.2988 74.5638 38.1915 74.7808C38.1257 74.914 38.0718 75.0321 38.0718 75.0433C38.0718 75.0955 38.9945 75.5182 39.029 75.4819C39.0506 75.4592 39.5429 74.5048 40.123 73.361C40.7031 72.2173 41.6558 70.3388 42.24 69.1866C42.8242 68.0345 43.3023 67.0647 43.3023 67.0316C43.3023 66.8928 42.7755 66.7722 42.4965 66.847C42.2215 66.9208 42.0345 67.1862 41.4994 68.2615C41.2425 68.7777 41.0108 69.2134 40.9844 69.2297C40.958 69.246 40.6257 69.1033 40.2459 68.9128C39.1258 68.3507 35.2731 66.4081 32.5144 65.0143C31.1037 64.3016 29.2366 63.3601 28.3653 62.9223C27.4939 62.4845 26.6566 62.0612 26.5044 61.9818C26.3523 61.9024 26.2052 61.8372 26.1775 61.837C26.1499 61.8368 25.5162 63.0485 24.7693 64.5296ZM22.0849 71.4077C21.5553 71.6573 21.1361 72.1422 20.8374 72.8506C20.5538 73.523 20.5018 73.8272 20.5015 74.8142C20.5012 75.6085 20.5164 75.7951 20.6079 76.1171C20.9968 77.4859 21.6329 78.5756 22.6512 79.618C23.162 80.1409 23.1816 80.1217 22.3553 79.9075C21.5969 79.7109 19.6146 79.2333 19.4028 79.1962C19.2284 79.1656 19.2144 79.1727 19.1838 79.3064C19.1659 79.3851 19.0852 79.6749 19.0044 79.9505C18.9237 80.2261 18.8332 80.5418 18.8033 80.6521C18.7734 80.7623 18.7201 80.9427 18.685 81.0529C18.6499 81.1632 18.582 81.3999 18.5343 81.5791C18.4866 81.7582 18.4187 81.995 18.3836 82.1052C18.3485 82.2155 18.2947 82.3959 18.264 82.5061C18.1958 82.7515 17.9314 83.6676 17.8301 84.0094C17.5851 84.8362 17.5613 84.9429 17.6191 84.9586C17.8517 85.0216 18.3014 85.1574 18.3971 85.1935C18.5803 85.2627 18.601 85.2495 18.6627 85.0241C18.6947 84.907 18.7495 84.7097 18.7843 84.5857C18.8191 84.4617 18.8753 84.2587 18.9092 84.1347C18.9431 84.0107 18.9997 83.819 19.0348 83.7088C19.07 83.5985 19.1721 83.249 19.2616 82.9321C19.3513 82.6151 19.433 82.3266 19.4432 82.291C19.4569 82.2436 19.4874 82.2398 19.5568 82.2768C19.6089 82.3046 19.7394 82.3495 19.8466 82.3765C19.954 82.4036 20.2002 82.473 20.3938 82.5307C20.5875 82.5885 20.9043 82.6792 21.0979 82.7322C21.4757 82.8356 21.7485 82.9145 22.305 83.0813C22.4986 83.1393 22.8154 83.2302 23.0091 83.2833C23.2027 83.3363 23.4743 83.4124 23.6126 83.4522C23.7509 83.4921 23.9945 83.5593 24.1538 83.6016C24.3132 83.6439 24.4614 83.6895 24.4831 83.7028C24.5047 83.7161 24.6912 83.7719 24.8974 83.8268C25.3675 83.9518 26.1067 84.1611 26.4038 84.2532C26.5283 84.2918 26.7207 84.3481 26.8313 84.3783C27.1177 84.4564 28.0471 84.7241 28.315 84.8057C28.4395 84.8436 28.6431 84.9026 28.7676 84.9368C29.35 85.0966 30.011 85.288 30.1758 85.3444C30.245 85.368 30.4826 85.4333 30.7039 85.4893C30.9252 85.5453 31.1628 85.6098 31.232 85.6326C31.3011 85.6553 31.4935 85.714 31.6595 85.7628C32.555 86.0264 32.8827 86.1647 33.2545 86.4359C33.5177 86.6279 33.7508 86.927 33.8394 87.1863C33.9541 87.5224 33.8823 88.2422 33.6468 89.1177C33.5889 89.3331 33.5481 89.5143 33.5561 89.5205C33.6211 89.5707 34.4086 89.7971 34.5182 89.7971C34.5801 89.7971 34.6129 89.7074 34.803 89.0204C34.8564 88.8275 34.9328 88.5569 34.9728 88.4191C35.0128 88.2813 35.0802 88.0386 35.1227 87.8798C35.1652 87.721 35.2147 87.5672 35.2328 87.5381C35.2509 87.5089 35.3066 87.3232 35.3564 87.1253C35.4515 86.7484 35.6567 86.022 35.7767 85.638C35.8154 85.514 35.8752 85.311 35.9095 85.187C36.0227 84.7778 36.1124 84.4635 36.1813 84.2349C36.3057 83.8223 36.41 83.4627 36.5375 83.0072C36.6069 82.7592 36.6899 82.4773 36.7219 82.3808C36.7539 82.2844 36.7975 82.1378 36.8187 82.0551C36.8535 81.9191 37.1082 81.0255 37.2186 80.6521C37.3636 80.1612 37.4144 79.9553 37.3953 79.9362C37.3834 79.9244 37.2034 79.9121 36.9953 79.9089C36.448 79.9006 36.2984 80.0317 36.0909 80.7022C35.9026 81.3102 35.8103 81.6262 35.6587 82.1804C35.6248 82.3044 35.5683 82.4961 35.5332 82.6063C35.498 82.7166 35.4286 82.9534 35.379 83.1325C35.3293 83.3116 35.2752 83.4744 35.2586 83.4942C35.242 83.5139 35.0818 83.4843 34.9025 83.4283C34.7232 83.3723 34.452 83.2916 34.2998 83.249C34.1477 83.2064 33.9214 83.1417 33.7969 83.1052C33.6724 83.0687 33.4348 83.0012 33.2688 82.955C32.8043 82.8259 32.6852 82.7918 32.4139 82.7101C32.2756 82.6684 31.9587 82.5768 31.7098 82.5065C31.181 82.3572 30.7936 82.2459 30.4776 82.1525C30.3531 82.1158 30.0023 82.0151 29.698 81.9288C29.1096 81.7619 28.9884 81.7269 28.5916 81.6083C28.4533 81.5669 28.1284 81.4764 27.8696 81.407C26.8497 81.1335 25.9261 80.7764 25.1717 80.3639C24.852 80.1891 24.4342 79.9235 24.3921 79.8683C24.3783 79.8502 24.2312 79.7348 24.0652 79.612C23.526 79.2129 22.9825 78.6157 22.4406 77.8268C22.2754 77.5864 21.9544 76.9463 21.8239 76.5972C21.6747 76.1982 21.6653 75.7008 21.802 75.4462C21.9379 75.1933 22.3213 74.9501 22.8355 74.7907C23.0693 74.7183 23.4033 74.6147 23.5777 74.5607C24.256 74.3503 24.6301 74.0636 24.8488 73.5865C25.0197 73.2138 25.02 72.5158 24.8493 72.2336C24.4395 71.5555 23.8544 71.2564 22.9383 71.2565C22.4502 71.2565 22.3787 71.2691 22.0849 71.4077ZM178.565 74.0448C176.637 74.2603 175.287 74.6241 173.957 75.287C172.05 76.237 170.738 77.6295 169.972 79.5149C169.667 80.2647 169.585 80.5547 169.411 81.5069C169.288 82.1761 169.326 83.9526 169.479 84.6859C169.748 85.9808 170.24 87.2356 170.834 88.1435C170.933 88.2951 171.028 88.4304 171.045 88.4442C171.061 88.4579 171.157 88.5826 171.258 88.7211C171.524 89.0869 172.322 89.8375 172.737 90.1113C173.577 90.6651 174.531 91.0599 175.481 91.247L175.916 91.3327L175.947 90.9784C175.965 90.7834 175.99 90.5225 176.005 90.3984L176.031 90.173L175.613 90.0762C175.22 89.9851 174.768 89.8476 174.542 89.7503C174.105 89.562 173.712 89.3648 173.712 89.3336C173.712 89.313 173.688 89.296 173.658 89.296C173.583 89.296 173.014 88.886 172.704 88.608C172.457 88.3871 171.927 87.7296 171.797 87.4825C171.763 87.4189 171.722 87.3555 171.705 87.3417C171.614 87.2661 171.203 86.3567 171.048 85.8885C170.654 84.6991 170.675 83.607 171.113 82.5312C171.526 81.5174 172.418 80.4355 173.486 79.6541C173.735 79.472 173.966 79.3006 173.999 79.2734C174.032 79.2462 174.072 79.2239 174.086 79.2239C174.101 79.2239 174.254 79.1388 174.428 79.0347C176.155 77.9981 178.866 77.2696 180.998 77.2696C182.615 77.2696 183.73 77.6006 184.802 78.3984C185.712 79.0764 186.356 80.1223 186.611 81.3367C186.849 82.4761 186.542 83.3737 185.73 83.9113C185.606 83.9928 185.11 84.2564 184.626 84.497C184.141 84.7377 183.655 85.0135 183.544 85.1099C183.434 85.2064 183.328 85.2857 183.31 85.2863C183.291 85.2868 183.191 85.403 183.087 85.5445C182.861 85.8507 182.796 86.1887 182.862 86.7182C182.991 87.7566 183.56 88.295 184.527 88.2931C185.192 88.2918 185.822 88.0032 186.386 87.442C187.081 86.7496 187.448 85.928 187.752 84.3852C187.839 83.9423 187.837 82.1331 187.748 81.5791C187.605 80.685 187.277 79.6105 186.885 78.7479C186.834 78.6376 186.77 78.4911 186.741 78.4222C186.712 78.3533 186.666 78.2631 186.639 78.2217C186.613 78.1804 186.484 77.9662 186.353 77.7457C186.007 77.1615 185.682 76.7543 185.133 76.2173C183.973 75.0833 182.468 74.3828 180.652 74.1313C180.103 74.0552 178.914 74.0059 178.565 74.0448ZM20.8465 90.5029C20.4666 90.568 20.1039 90.6509 19.9915 90.6986C19.4477 90.9288 19.0779 91.1277 18.8103 91.3341C18.1939 91.8093 17.791 92.2341 17.3451 92.8789C17.0917 93.2453 16.7615 93.8153 16.6428 94.0912C16.5859 94.2236 16.51 94.3996 16.4743 94.4823C16.2219 95.0658 16.1283 95.383 15.9712 96.1861C15.7414 97.3614 15.7166 99.1616 15.9187 100.005C15.9597 100.176 15.9932 100.358 15.9932 100.41C15.9932 100.503 16.2531 101.356 16.3401 101.548C16.3651 101.603 16.4355 101.76 16.4965 101.897C16.7312 102.423 16.7108 102.388 17.1248 103C17.6336 103.753 18.4464 104.523 19.3059 105.066C19.4894 105.182 19.6621 105.295 19.6897 105.318C19.7576 105.375 20.8461 105.901 21.0979 106C21.3223 106.087 21.9578 106.285 22.3804 106.399C23.8994 106.808 26.1962 106.856 27.7897 106.513C30.9221 105.838 33.3408 103.4 34.0564 100.195C34.3567 98.8502 34.38 97.2613 34.1176 96.0108C34.0197 95.5434 33.8462 94.9491 33.7894 94.8858C33.7658 94.8596 33.7463 94.8032 33.7459 94.7605C33.7448 94.6404 33.3429 93.8756 33.0468 93.4301C32.7289 92.9518 31.7803 91.9917 31.3577 91.7206C30.9848 91.4814 30.9319 91.4509 30.5384 91.2488C30.2327 91.0918 30.2197 91.0895 30.1503 91.1809C30.1107 91.2328 30.0777 91.3111 30.0768 91.3547C30.0759 91.3983 30.0606 91.4486 30.0428 91.4663C30.008 91.5011 29.7741 92.0577 29.7737 92.1068C29.7736 92.1231 29.8577 92.1795 29.9607 92.2321C30.0637 92.2847 30.1712 92.3447 30.1996 92.3655C30.228 92.3863 30.4097 92.5075 30.6033 92.6348C31.0634 92.9373 31.8323 93.6894 32.1337 94.1316C32.2651 94.3246 32.4583 94.6628 32.5629 94.8833C32.8515 95.4915 32.827 95.4189 33.0191 96.2363C33.1341 96.7254 33.1329 98.1453 33.0171 98.6666C32.9058 99.1672 32.7247 99.6929 32.5683 99.9695C32.4981 100.093 32.4198 100.242 32.3943 100.298C32.283 100.547 31.6988 101.2 31.3236 101.496C30.9931 101.756 30.2878 102.154 29.6729 102.426C29.3613 102.564 28.396 102.815 27.5506 102.977C26.7167 103.137 24.589 103.241 24.517 103.125C24.4994 103.097 24.5203 102.595 24.5636 102.01C24.9031 97.4233 24.9558 95.8231 24.8176 94.307C24.708 93.1042 24.5287 92.3424 24.2286 91.8042C23.8732 91.167 23.0653 90.6239 22.2953 90.5046C21.8816 90.4405 21.2151 90.4397 20.8465 90.5029ZM175.598 92.326C175.57 92.3345 175.412 92.3688 175.246 92.4021C174.762 92.4995 174.176 92.7334 173.773 92.9907C173.411 93.2209 172.825 93.8034 172.598 94.1582C172.389 94.4845 172.086 95.1044 172 95.3844C171.966 95.4946 171.918 95.6412 171.895 95.7101C171.717 96.2259 171.634 97.873 171.752 98.5455C171.926 99.5373 172.244 100.444 172.628 101.047C173.382 102.23 174.202 103.02 175.19 103.513L175.486 103.661L175.165 103.726C174.708 103.819 174.364 103.908 174.19 103.979C172.967 104.476 172.368 105.046 172.019 106.045C171.944 106.259 171.927 106.458 171.929 107.11C171.931 107.984 171.992 108.281 172.286 108.846C172.478 109.216 173.113 109.825 173.516 110.027C174.182 110.36 175.196 110.593 175.984 110.593H176.327V110.071V109.548L176.189 109.521C176.113 109.506 175.811 109.459 175.518 109.417C175.226 109.375 174.92 109.321 174.84 109.296C174.759 109.272 174.591 109.221 174.466 109.184C173.605 108.925 173.078 108.309 173.257 107.769C173.38 107.396 173.672 107.163 174.232 106.991C174.634 106.867 175.788 106.802 178.314 106.76C182.934 106.684 184.867 106.627 185.33 106.555C187.442 106.226 188.815 105.314 189.559 103.745C189.675 103.501 189.789 103.263 189.812 103.216C189.836 103.168 189.876 103.044 189.902 102.94C189.929 102.836 189.987 102.604 190.033 102.425C190.177 101.856 190.258 101.072 190.257 100.245C190.256 99.4226 190.158 98.1046 190.06 97.6143C190.03 97.4627 189.981 97.2147 189.951 97.0631C189.879 96.6945 189.703 96.0975 189.648 96.0383C189.624 96.0121 189.604 95.9557 189.604 95.9131C189.604 95.8151 189.24 95.0586 189.09 94.844C188.921 94.6012 188.489 94.096 188.347 93.974C188.278 93.9147 188.157 93.8105 188.078 93.7424C187.888 93.5786 187.376 93.3285 187.072 93.2509C186.575 93.1242 185.914 93.2182 185.547 93.4678C185.456 93.5298 185.312 93.7104 185.226 93.8692C185.099 94.107 185.067 94.2354 185.044 94.5958C185.005 95.202 185.071 95.4128 185.4 95.7311C185.7 96.0222 185.911 96.1358 186.614 96.3855C187.593 96.7332 188.001 96.9273 188.277 97.1776C188.982 97.8168 189.266 98.7352 189.125 99.9244C188.978 101.173 188.51 102.054 187.665 102.677C187.31 102.94 186.802 103.166 186.238 103.313C185.801 103.427 185.607 103.443 184.11 103.491C183.204 103.52 182.452 103.533 182.44 103.521C182.427 103.509 182.393 103.037 182.363 102.473C182.259 100.498 181.973 98.3619 181.685 97.4138C181.647 97.2898 181.605 97.132 181.59 97.0631C181.477 96.5325 181.135 95.6496 180.766 94.9334C180.359 94.1431 179.539 93.232 178.913 92.8736C178.14 92.4307 177.572 92.2996 176.453 92.3059C176.01 92.3085 175.626 92.3175 175.598 92.326ZM20.2681 93.785C19.8863 93.8511 19.5548 93.9408 19.2967 94.0479C19.2188 94.0802 19.1391 94.1066 19.1196 94.1066C19.1001 94.1066 18.9039 94.2117 18.6835 94.3402C18.2534 94.5911 17.6122 95.1932 17.4956 95.4559C17.4579 95.5406 17.4123 95.6099 17.3941 95.6099C17.3759 95.6099 17.3327 95.6832 17.2982 95.7727C17.2637 95.8623 17.2039 96.0145 17.1654 96.111C16.9435 96.6663 16.8837 97.0301 16.8811 97.8398C16.8783 98.7079 16.9102 98.881 17.2102 99.6187C17.5839 100.538 18.409 101.463 19.3377 102.004C19.44 102.063 20.0096 102.346 20.1927 102.427C20.7703 102.686 22.2323 103.029 23.0175 103.09C23.3262 103.115 23.302 103.18 23.3851 102.099C23.4548 101.193 23.5736 99.6263 23.6378 98.7668C23.7038 97.8828 23.702 96.5864 23.6339 96.0563C23.4594 94.6971 22.7602 93.9478 21.4906 93.7594C21.0485 93.6938 20.7599 93.6998 20.2681 93.785ZM176.604 95.612C175.892 95.6731 175.283 95.8574 174.754 96.1722C174.126 96.5459 173.834 96.9193 173.531 97.7396C173.456 97.942 173.439 98.1345 173.439 98.7418C173.44 99.4954 173.457 99.6024 173.688 100.295C173.878 100.866 174.314 101.524 174.867 102.075C175.534 102.74 176.144 103.102 177.151 103.431L177.751 103.627L178.912 103.627C179.551 103.627 180.332 103.612 180.646 103.594L181.219 103.561L181.192 102.68C181.177 102.195 181.139 101.562 181.108 101.272C181.077 100.983 181.028 100.532 180.999 100.27C180.895 99.3159 180.739 98.6412 180.444 97.8778C180.2 97.2464 179.934 96.8363 179.493 96.4116C178.797 95.743 177.918 95.4995 176.604 95.612ZM32.5679 108.575C32.3936 108.619 32.1117 108.834 32.0159 108.995C31.9377 109.127 31.9272 109.217 31.952 109.538C31.9684 109.75 32.0081 109.989 32.0403 110.07C32.0725 110.151 32.1162 110.285 32.1375 110.367C32.1588 110.45 32.2492 110.777 32.3384 111.094C32.5962 112.009 32.594 111.996 32.485 111.996C32.4332 111.996 32.3054 112.027 32.2011 112.065C32.0969 112.103 31.8644 112.174 31.6846 112.223C30.9053 112.432 30.1635 112.643 29.7232 112.78C29.5987 112.818 29.2027 112.93 28.8431 113.027C28.4835 113.125 28.0761 113.238 27.9378 113.279C27.6417 113.366 27.5401 113.395 26.9068 113.569C26.4574 113.693 26.0217 113.817 25.4986 113.969C25.3741 114.005 25.0459 114.097 24.7693 114.173C24.155 114.341 23.8409 114.43 23.512 114.529C23.3737 114.571 23.1021 114.647 22.9085 114.7C22.7149 114.752 22.3867 114.843 22.1792 114.903C21.5325 115.09 21.3105 115.153 20.9471 115.252C20.6217 115.342 20.2211 115.455 19.5891 115.635C19.4508 115.675 19.1793 115.751 18.9856 115.804C18.792 115.858 18.5091 115.938 18.357 115.982C18.0222 116.08 17.4997 116.227 17.0242 116.357C16.8306 116.409 16.559 116.485 16.4207 116.525C15.9278 116.668 15.2568 116.857 14.7862 116.987C14.5234 117.059 14.2179 117.148 14.1072 117.184C13.8089 117.28 13.1161 117.472 12.3973 117.659C12.3143 117.681 12.1785 117.721 12.0955 117.748C12.0125 117.775 11.8541 117.822 11.7434 117.852C11.6328 117.882 11.3871 117.952 11.1975 118.008C11.0079 118.064 10.8258 118.109 10.793 118.109C10.7602 118.109 10.692 117.98 10.6414 117.821C10.5909 117.663 10.5279 117.465 10.5014 117.383C10.4516 117.228 10.4076 117.071 10.1846 116.255C10.113 115.993 10.02 115.666 9.97771 115.529C9.93551 115.391 9.88864 115.216 9.8736 115.141C9.84996 115.022 9.82794 115.007 9.71352 115.033C9.5134 115.078 9.04482 115.209 8.8954 115.263L8.76318 115.31L8.88766 115.77C9.02657 116.284 9.11131 116.582 9.22834 116.97C9.2719 117.114 9.34955 117.39 9.40095 117.583C9.4871 117.907 9.59935 118.3 9.78685 118.936C9.82748 119.074 9.90428 119.344 9.95749 119.537C10.0469 119.862 10.1603 120.261 10.3418 120.89C10.3815 121.028 10.4578 121.299 10.5113 121.492C10.6674 122.054 10.7435 122.319 10.864 122.719C10.9262 122.926 11.0187 123.253 11.0695 123.446C11.1203 123.639 11.1952 123.91 11.236 124.047C11.2768 124.185 11.3594 124.473 11.4195 124.686C11.5372 125.105 11.5519 125.116 11.8556 125.006C11.9599 124.968 12.1771 124.899 12.3383 124.852C12.5781 124.782 12.6248 124.751 12.5953 124.682C12.5754 124.636 12.5299 124.497 12.4941 124.373C12.4058 124.067 12.2694 123.579 12.2209 123.396C12.199 123.313 12.1224 123.043 12.0505 122.795C11.9787 122.547 11.8945 122.253 11.8635 122.143C11.8325 122.033 11.7871 121.877 11.7627 121.797C11.7383 121.717 11.7183 121.644 11.7183 121.633C11.7183 121.6 11.9811 121.511 12.4224 121.393C12.8369 121.282 13.1835 121.185 13.7049 121.035C13.8432 120.995 14.1148 120.919 14.3084 120.865C14.6757 120.764 14.9098 120.698 15.5406 120.516C15.748 120.456 16.0762 120.364 16.2698 120.312C16.4634 120.26 16.735 120.184 16.8733 120.144C17.3662 120.002 18.0373 119.812 18.5078 119.683C18.7706 119.61 19.0762 119.521 19.1868 119.485C19.2974 119.449 19.6143 119.36 19.8909 119.287C20.4348 119.143 20.7684 119.048 21.1231 118.938C21.2476 118.899 21.4208 118.853 21.508 118.836C21.6541 118.807 21.6705 118.818 21.7162 118.971C21.7939 119.231 21.909 119.644 22.0549 120.189C22.1288 120.464 22.2181 120.78 22.2533 120.89C22.3629 121.233 22.4202 121.43 22.5084 121.767C22.595 122.099 22.828 122.912 22.9533 123.321C23.0304 123.572 23.065 123.696 23.2903 124.523C23.3765 124.84 23.4763 125.19 23.5121 125.3C23.5821 125.516 23.6089 125.611 23.8394 126.453C23.9223 126.756 24.0214 127.105 24.0595 127.229C24.0977 127.353 24.1537 127.545 24.184 127.655C24.2142 127.765 24.3076 128.092 24.3914 128.382C24.541 128.898 24.643 129.261 24.7507 129.66C24.7805 129.77 24.8336 129.95 24.8688 130.061C25.1226 130.857 25.1399 131.038 24.9621 131.038C24.8842 131.038 24.4307 131.161 23.7886 131.358C23.6641 131.396 23.4604 131.455 23.336 131.489C23.2115 131.523 23.0078 131.579 22.8833 131.614C22.7589 131.649 22.5099 131.716 22.3301 131.765C22.1503 131.813 21.9127 131.881 21.802 131.916C21.6914 131.951 21.5103 132.004 21.3997 132.035C21.2891 132.065 20.8364 132.191 20.3938 132.315C19.9513 132.439 19.4986 132.565 19.388 132.596C19.2773 132.626 19.0963 132.68 18.9856 132.715C18.875 132.75 18.6374 132.818 18.4576 132.866C18.2778 132.914 18.0288 132.982 17.9043 133.017C17.7799 133.052 17.5762 133.108 17.4517 133.142C17.3272 133.176 17.1235 133.236 16.9991 133.274C16.7331 133.357 15.9805 133.571 15.601 133.672C15.1762 133.786 15.1731 133.784 15.0707 133.405C15.0203 133.219 14.9497 132.977 14.9137 132.867C14.8776 132.756 14.7861 132.441 14.7104 132.165C14.3273 130.771 14.2772 130.628 14.1844 130.665C14.1012 130.699 13.708 130.814 13.4369 130.885C13.3448 130.909 13.2567 130.941 13.2412 130.957C13.2162 130.982 13.3125 131.394 13.4239 131.739C13.4462 131.808 13.5031 132 13.5505 132.165C13.5978 132.33 13.6662 132.567 13.7026 132.691C13.7388 132.815 13.7966 133.018 13.8309 133.142C13.9278 133.493 14.0271 133.845 14.1061 134.119C14.1891 134.407 14.2961 134.782 14.3778 135.072C14.4524 135.335 14.6747 136.108 14.7668 136.424C14.8069 136.562 14.8813 136.833 14.9321 137.026C14.9829 137.219 15.0753 137.546 15.1376 137.752C15.2581 138.152 15.3342 138.417 15.4903 138.98C15.5438 139.173 15.6201 139.444 15.6598 139.581C15.7699 139.964 15.9481 140.574 15.9769 140.667C15.9996 140.741 16.0257 140.743 16.2116 140.685C16.3978 140.628 16.5503 140.585 16.9362 140.482C17.0693 140.446 17.0736 140.407 16.9776 140.108C16.9379 139.984 16.8786 139.781 16.8458 139.657C16.8129 139.533 16.7544 139.33 16.7157 139.206C16.4233 138.27 16.1811 137.313 16.2206 137.25C16.2371 137.223 16.2824 137.201 16.3213 137.201C16.3602 137.201 16.5003 137.167 16.6327 137.126C17.1289 136.971 17.9251 136.743 18.5581 136.576C18.7379 136.529 18.9756 136.461 19.0862 136.425C19.1969 136.39 19.5024 136.302 19.7652 136.229C20.2358 136.1 20.9068 135.91 21.3997 135.767C21.538 135.727 21.8096 135.652 22.0032 135.6C22.1968 135.548 22.525 135.456 22.7325 135.396C23.3632 135.214 23.5973 135.148 23.9646 135.046C24.3319 134.945 24.5661 134.879 25.1968 134.697C25.4043 134.637 25.7324 134.545 25.9261 134.493C26.1197 134.441 26.3913 134.365 26.5296 134.325C27.1679 134.138 27.5627 134.026 27.8875 133.94C28.0811 133.889 28.3581 133.812 28.503 133.768C28.9256 133.642 29.5763 133.457 29.9998 133.344C30.1929 133.292 30.6892 133.15 30.9805 133.064C31.3065 132.967 32.2826 132.693 32.4893 132.641C32.5861 132.616 32.7785 132.562 32.9168 132.521C33.1387 132.455 33.3883 132.384 34.5513 132.057C35.0408 131.919 35.1252 131.895 35.3811 131.82C35.5194 131.779 35.7684 131.709 35.9344 131.663C36.1003 131.617 36.338 131.551 36.4624 131.515C37.7199 131.152 37.985 131.085 38.0184 131.118C38.032 131.132 38.0697 131.238 38.1021 131.353C38.1345 131.469 38.1983 131.688 38.2438 131.839C38.2893 131.991 38.369 132.273 38.4208 132.466C38.7006 133.507 38.9293 134.245 38.9727 134.245C38.989 134.245 39.1833 134.189 39.4046 134.12C39.6259 134.052 39.8491 133.995 39.9006 133.995C39.9756 133.994 39.9891 133.967 39.9683 133.856C39.9431 133.723 39.701 132.855 39.5598 132.391C39.4656 132.081 39.3575 131.701 39.2036 131.138C39.1321 130.876 39.0396 130.549 38.9981 130.411C38.9127 130.128 38.8989 130.079 38.6764 129.284C38.4933 128.63 38.4009 128.305 38.3048 127.981C38.2681 127.857 38.1758 127.53 38.0999 127.254C37.9474 126.701 37.8724 126.439 37.7488 126.027C37.7034 125.875 37.6238 125.593 37.572 125.4C37.4191 124.831 37.2333 124.222 37.2036 124.193C37.1456 124.135 36.611 124.436 36.5029 124.587C36.4096 124.718 36.3912 124.806 36.3964 125.098C36.3999 125.292 36.4302 125.518 36.4637 125.601C36.4972 125.683 36.542 125.819 36.5632 125.901C36.6942 126.412 36.8754 127.072 36.914 127.179C36.9388 127.248 36.9731 127.376 36.9903 127.462C37.0243 127.635 37.0366 127.627 36.4373 127.789C36.1801 127.858 35.8019 127.963 35.4817 128.055C35.1927 128.138 34.8167 128.244 34.5262 128.326C34.2615 128.4 33.4854 128.622 33.1683 128.713C33.0299 128.753 32.7584 128.827 32.5647 128.878C32.3711 128.929 32.0429 129.021 31.8355 129.083C31.4339 129.203 31.1681 129.279 30.6033 129.434C30.236 129.535 30.0019 129.602 29.3711 129.784C29.1637 129.844 28.8355 129.935 28.6419 129.988C28.4483 130.04 28.1767 130.115 28.0384 130.156C27.2931 130.374 26.9993 130.456 26.6809 130.534L26.3293 130.62L26.2692 130.441C26.2361 130.342 26.1623 130.081 26.1053 129.86C26.0482 129.64 25.982 129.403 25.9583 129.334C25.8819 129.112 25.7537 128.673 25.5705 128.006C25.4722 127.648 25.3583 127.242 25.3174 127.104C25.2764 126.966 25.2238 126.786 25.2004 126.703C24.9592 125.851 24.8267 125.373 24.7931 125.233C24.771 125.141 24.7306 125.006 24.7033 124.933C24.6761 124.859 24.5947 124.585 24.5224 124.323C24.3953 123.863 24.2107 123.213 24.0595 122.694C24.0194 122.557 23.9437 122.286 23.8914 122.093C23.8391 121.9 23.7471 121.573 23.687 121.366C23.4994 120.722 23.4364 120.501 23.3365 120.139C23.2833 119.946 23.1936 119.63 23.1372 119.437C23.0807 119.244 23.0111 118.988 22.9825 118.867C22.9538 118.746 22.9094 118.609 22.8839 118.561C22.8443 118.488 22.8798 118.462 23.1244 118.385C23.2823 118.336 23.4688 118.275 23.5391 118.251C23.6093 118.226 23.8356 118.164 24.042 118.112C24.4319 118.015 25.1573 117.812 25.5489 117.69C25.6733 117.652 25.877 117.592 26.0015 117.558C26.126 117.524 26.3297 117.467 26.4541 117.433C26.5786 117.398 26.8276 117.33 27.0074 117.282C27.1872 117.234 27.4248 117.166 27.5354 117.131C27.6461 117.096 27.8271 117.043 27.9378 117.013C28.0484 116.983 28.3766 116.891 28.667 116.807C29.1852 116.658 29.5493 116.556 29.9495 116.449C30.0601 116.419 30.2412 116.367 30.3518 116.332C30.4625 116.296 30.7001 116.229 30.8799 116.18C31.0597 116.132 31.3087 116.065 31.4331 116.03C31.5576 115.995 31.7613 115.939 31.8858 115.905C32.0103 115.871 32.2139 115.812 32.3384 115.774C33.0209 115.566 33.5669 115.409 33.5711 115.418C33.5738 115.424 33.6281 115.62 33.6919 115.854C33.7556 116.089 33.8369 116.37 33.8726 116.481C33.9082 116.591 33.9642 116.783 33.9971 116.907C34.0528 117.117 34.0858 117.237 34.2675 117.884C34.4068 118.38 34.4691 118.566 34.5036 118.587C34.5229 118.599 34.6378 118.577 34.7588 118.538C34.8798 118.5 35.11 118.429 35.2704 118.381C35.4989 118.313 35.5554 118.277 35.5312 118.214C35.5142 118.17 35.4418 117.92 35.3702 117.658C35.2453 117.201 35.1844 116.989 35.029 116.469C34.9899 116.337 34.8992 116.016 34.8277 115.754C34.6858 115.235 34.5772 114.851 34.473 114.501C34.4361 114.377 34.3356 114.028 34.2496 113.725C34.0019 112.852 33.9398 112.632 33.8946 112.472C33.8279 112.235 33.6183 111.506 33.4986 111.094C33.4385 110.887 33.3704 110.65 33.3471 110.568C33.3238 110.485 33.2699 110.293 33.2272 110.142C33.1845 109.99 33.1123 109.731 33.0666 109.566C33.0209 109.4 32.9503 109.152 32.9097 109.014C32.8691 108.877 32.8231 108.713 32.8076 108.651C32.7793 108.538 32.7494 108.529 32.5679 108.575ZM194.282 115.929C192.475 116.103 190.954 116.15 190.212 116.054C190.007 116.027 189.829 116.015 189.818 116.026C189.806 116.037 189.778 116.19 189.755 116.364C189.731 116.538 189.696 116.788 189.677 116.918C189.65 117.1 189.658 117.16 189.711 117.174C190.154 117.295 191.508 117.729 191.692 117.81C191.923 117.912 192.405 118.1 192.522 118.134C192.591 118.154 192.715 118.2 192.798 118.236C193.243 118.428 195.182 119.228 195.358 119.292C196.572 119.734 197.273 119.631 197.802 118.935C198.172 118.449 198.321 117.406 198.101 116.846C197.971 116.515 197.677 116.209 197.307 116.023C197.024 115.88 197.02 115.879 195.992 115.872C195.425 115.867 194.655 115.893 194.282 115.929ZM170.339 118.516C170.308 118.574 170.279 118.769 170.275 118.948L170.267 119.274L170.517 119.493C170.655 119.614 170.782 119.713 170.8 119.713C170.818 119.713 170.914 119.746 171.012 119.787L171.191 119.862L170.61 120.426C169.858 121.156 169.617 121.47 168.884 122.669C168.783 122.835 168.381 123.697 168.381 123.749C168.381 123.767 168.349 123.853 168.309 123.94C168.1 124.402 167.927 125.035 167.775 125.901C167.649 126.615 167.638 128.107 167.754 128.648C167.901 129.332 167.943 129.461 168.161 129.912C168.64 130.905 169.487 131.629 170.655 132.045C172.126 132.569 173.674 132.382 174.951 131.526C175.686 131.033 177.055 129.761 177.8 128.879C178.827 127.663 179.465 126.977 179.948 126.571C181.074 125.625 182.095 125.291 183 125.574C184.321 125.986 185.074 127.242 184.882 128.713C184.807 129.289 184.609 130.11 184.472 130.411C184.448 130.466 184.38 130.636 184.321 130.787C184.222 131.046 183.838 131.784 183.774 131.839C183.758 131.853 183.648 131.994 183.53 132.153C183.35 132.393 183.156 132.572 182.74 132.88C182.712 132.9 182.582 132.969 182.452 133.032C181.678 133.409 180.799 133.444 179.697 133.141C179.553 133.102 179.509 133.108 179.458 133.177C179.423 133.224 179.395 133.297 179.395 133.34C179.395 133.383 179.338 133.574 179.269 133.764C179.2 133.954 179.144 134.114 179.144 134.12C179.144 134.139 179.947 134.427 180.451 134.59C181.397 134.895 182.039 135.106 182.211 135.169C182.497 135.273 182.711 135.344 183.217 135.503C183.48 135.586 183.769 135.686 183.86 135.726C184.09 135.826 184.099 135.822 184.165 135.604C184.257 135.298 184.237 135.032 184.108 134.841C183.995 134.673 183.384 134.295 183.226 134.295C183.183 134.295 183.301 134.137 183.498 133.931C184.04 133.364 184.209 133.159 184.515 132.696C185.275 131.546 185.803 130.239 186.116 128.733C186.244 128.117 186.243 126.407 186.115 125.876C185.882 124.91 185.572 124.286 185.07 123.77C184.605 123.293 184.154 123.003 183.544 122.789C181.847 122.193 180.349 122.433 178.842 123.54C178.303 123.936 176.739 125.445 176.083 126.202C175.485 126.891 174.208 128.158 173.814 128.455C172.695 129.294 171.685 129.481 170.716 129.03C170.207 128.792 169.664 128.234 169.397 127.674C169.287 127.443 169.167 127.108 169.129 126.929C168.869 125.698 169.368 123.794 170.265 122.598C170.598 122.154 170.779 121.985 171.222 121.706C171.679 121.419 172.023 121.282 172.58 121.163C173.38 120.994 174.312 121.064 175.525 121.387C175.786 121.456 176.013 121.497 176.03 121.477C176.076 121.424 176.394 120.414 176.372 120.393C176.361 120.383 175.979 120.249 175.523 120.096C175.066 119.943 174.534 119.763 174.341 119.696C173.864 119.53 173.367 119.366 173.184 119.313C173.101 119.289 172.875 119.214 172.681 119.146C172.254 118.996 171.729 118.822 171.524 118.761C171.441 118.737 171.174 118.648 170.931 118.563C170.687 118.479 170.468 118.41 170.442 118.41C170.417 118.41 170.37 118.458 170.339 118.516ZM162.069 143.964C161.82 143.987 161.492 144.03 161.34 144.062C161.188 144.093 160.939 144.143 160.787 144.174C160.447 144.242 159.559 144.5 159.353 144.59C159.27 144.626 159.112 144.684 159.001 144.718C158.891 144.753 158.744 144.81 158.674 144.845C158.605 144.88 158.356 145.004 158.121 145.119C156.771 145.781 155.289 146.918 154.299 148.052C154.064 148.321 153.844 148.568 153.811 148.602C153.623 148.794 152.996 149.674 152.562 150.355C152.329 150.72 151.712 151.913 151.577 152.259C151.524 152.397 151.459 152.555 151.435 152.61C151.27 152.978 150.919 154.054 150.764 154.665C150.587 155.361 150.527 155.64 150.527 155.76C150.527 155.829 150.509 155.897 150.487 155.911C150.465 155.925 150.289 155.815 150.097 155.668C149.411 155.145 148.938 154.966 148.61 155.106C148.42 155.187 148.041 155.556 148.069 155.631C148.088 155.679 148.309 155.874 149.119 156.555C149.354 156.753 149.591 156.961 149.647 157.017C149.702 157.074 149.917 157.258 150.125 157.427C150.332 157.596 150.558 157.789 150.627 157.858C150.697 157.926 150.964 158.16 151.222 158.378C151.481 158.595 151.903 158.954 152.161 159.174C152.419 159.395 152.83 159.745 153.074 159.952C153.319 160.159 153.61 160.413 153.72 160.517C153.83 160.621 153.953 160.699 153.994 160.691C154.034 160.684 154.201 160.514 154.366 160.315L154.665 159.952L154.532 159.752C154.459 159.642 154.399 159.531 154.399 159.505C154.399 159.479 154.37 159.427 154.333 159.391C154.245 159.304 153.582 157.942 153.47 157.621C153.422 157.483 153.366 157.325 153.345 157.27C152.893 156.082 152.715 154.404 152.921 153.261C153.066 152.45 153.388 151.548 153.832 150.706C153.978 150.428 154.513 149.657 154.822 149.278C156.076 147.741 157.528 146.846 159.37 146.475C159.714 146.406 161.154 146.406 161.586 146.475C162.344 146.596 163.295 146.857 163.974 147.129C164.376 147.29 165.99 148.087 166.009 148.133C166.018 148.156 166.048 148.175 166.075 148.175C166.102 148.175 166.223 148.243 166.344 148.326C166.465 148.408 166.576 148.476 166.592 148.476C166.608 148.476 166.709 148.538 166.816 148.614C166.923 148.689 167.062 148.785 167.124 148.827C167.35 148.978 168.073 149.51 168.418 149.779C169.806 150.861 171.452 152.496 172.253 153.588C172.62 154.087 172.907 154.495 172.907 154.514C172.907 154.525 172.973 154.631 173.053 154.75C173.278 155.082 173.729 155.976 173.883 156.393C173.959 156.6 174.051 156.848 174.088 156.945C174.165 157.147 174.27 157.552 174.395 158.122C174.521 158.696 174.519 160.218 174.392 160.778C174.015 162.441 173.345 163.673 172.161 164.879C171.559 165.491 170.669 166.167 170.116 166.431C169.246 166.847 168.899 166.968 168.054 167.151C167.502 167.27 165.773 167.269 165.187 167.149C164.966 167.104 164.66 167.042 164.508 167.012C164.356 166.982 164.141 166.929 164.031 166.894C163.92 166.86 163.694 166.791 163.528 166.742C163.362 166.693 163.155 166.622 163.067 166.584C162.98 166.546 162.886 166.516 162.857 166.516C162.828 166.516 162.667 166.456 162.499 166.383L162.192 166.251L161.893 166.571C161.627 166.856 161.498 167.049 161.549 167.087C161.606 167.129 162.363 167.744 162.697 168.019C162.914 168.198 163.269 168.489 163.486 168.666C163.702 168.843 163.902 169.012 163.93 169.043C163.958 169.074 164.158 169.245 164.374 169.423C164.591 169.602 164.946 169.894 165.163 170.073C165.381 170.252 165.724 170.532 165.926 170.694C166.128 170.856 166.328 171.025 166.369 171.069C166.411 171.114 166.615 171.284 166.822 171.448C167.029 171.611 167.241 171.787 167.291 171.838C167.406 171.955 167.471 171.91 167.65 171.591C167.749 171.414 167.777 171.293 167.777 171.046C167.777 170.74 167.769 170.718 167.545 170.463C167.418 170.318 167.152 170.048 166.954 169.863L166.596 169.527L166.772 169.523C167.034 169.517 167.725 169.337 168.104 169.177C170.673 168.091 173.17 165.973 174.852 163.455C175.361 162.692 176.227 160.948 176.227 160.686C176.227 160.643 176.247 160.596 176.271 160.581C176.296 160.566 176.327 160.491 176.341 160.415C176.355 160.339 176.423 160.074 176.491 159.826C176.935 158.22 176.957 156.207 176.548 154.489C176.249 153.23 175.702 151.877 175.07 150.831C174.962 150.652 174.839 150.446 174.797 150.373C174.62 150.065 173.87 149.114 173.419 148.626C171.565 146.621 169.319 145.145 167.098 144.472C166.436 144.271 166.123 144.198 165.238 144.037C164.717 143.943 162.802 143.899 162.069 143.964ZM55.6492 145.344C55.5939 145.354 55.2997 145.387 54.9954 145.417C54.497 145.467 54.2061 145.511 53.3106 145.676C53.0025 145.733 52.5104 145.846 52.1287 145.948C50.8408 146.292 50.525 146.391 48.1556 147.198C47.464 147.433 46.6832 147.695 46.4204 147.779C46.1577 147.863 45.8635 147.96 45.7666 147.996C45.5428 148.078 45.4406 148.113 44.283 148.502C43.7574 148.679 42.7616 149.017 42.0701 149.253C41.3786 149.489 40.3828 149.827 39.8572 150.004C39.3317 150.181 38.7432 150.38 38.5496 150.448C38.356 150.515 37.9825 150.64 37.7198 150.725C37.457 150.81 36.7554 151.046 36.1607 151.249C35.566 151.451 34.7739 151.721 34.4004 151.847C33.6296 152.109 33.1997 152.177 32.9147 152.083C32.7997 152.045 32.5643 151.868 32.3178 151.633C32.094 151.421 31.8615 151.22 31.8011 151.189C31.5711 151.069 31.2679 151.135 30.9428 151.374C30.7449 151.52 30.7398 151.579 30.9113 151.737C30.9839 151.804 31.2034 152.05 31.3991 152.284C31.5948 152.519 31.8013 152.756 31.8581 152.811C31.9148 152.867 32.1303 153.115 32.3369 153.363C32.5435 153.61 32.7379 153.835 32.7688 153.863C32.8363 153.923 33.6009 154.806 34.0232 155.312C34.6196 156.027 34.8941 156.305 34.963 156.263C35.0936 156.185 35.7071 155.616 35.7075 155.572C35.708 155.534 35.1886 154.909 35.0985 154.84C35.0806 154.826 34.9106 154.631 34.7206 154.406C34.5307 154.181 34.2419 153.848 34.0789 153.666C33.9159 153.483 33.7914 153.328 33.8023 153.321C33.8681 153.275 34.1658 153.162 34.4256 153.084C34.5915 153.034 34.8518 152.945 35.0039 152.885C35.1561 152.825 35.3485 152.758 35.4314 152.735C35.6355 152.679 37.0658 152.19 37.1917 152.133C37.293 152.088 37.7398 151.936 39.4046 151.379C39.9025 151.213 40.3551 151.055 40.4104 151.03C40.4658 151.004 40.7487 150.905 41.0391 150.809C41.3295 150.712 41.8614 150.53 42.221 150.404C42.5806 150.277 42.9427 150.154 43.0257 150.129C43.1783 150.085 44.6719 149.569 44.8111 149.512C44.906 149.474 45.9702 149.113 46.4707 148.949C46.6782 148.882 46.8932 148.806 46.9485 148.781C47.1195 148.704 47.2312 148.676 47.2125 148.715C47.1104 148.926 46.6765 149.816 46.2173 150.756C45.0254 153.195 44.5374 154.191 44.1565 154.965C43.9393 155.406 43.5366 156.229 43.2616 156.794C42.5641 158.227 41.7523 159.887 41.305 160.795L40.9264 161.563L40.7699 161.371C40.6838 161.265 40.5099 161.066 40.3834 160.928C40.257 160.79 40.0416 160.543 39.9048 160.378C39.768 160.213 39.5486 159.965 39.4172 159.827C39.2858 159.689 39.1784 159.558 39.1783 159.538C39.1783 159.517 39.1569 159.5 39.1308 159.5C39.0782 159.5 38.4321 160.031 38.3409 160.149C38.2802 160.228 38.3185 160.288 38.6943 160.703C38.7817 160.799 39.0564 161.115 39.3049 161.404C39.5533 161.694 39.7811 161.953 39.811 161.981C39.841 162.008 40.0447 162.241 40.2637 162.497C40.4827 162.754 40.8543 163.187 41.0894 163.46C41.3245 163.732 41.6862 164.154 41.8932 164.396C42.1002 164.639 42.3154 164.882 42.3715 164.937C42.4275 164.992 42.6345 165.229 42.8315 165.463C43.0285 165.697 43.282 165.988 43.3949 166.108L43.6002 166.328L43.8655 166.108C44.0115 165.988 44.1946 165.825 44.2726 165.747C44.4404 165.578 44.4374 165.571 43.9727 165.062C43.308 164.334 43.0989 164.058 43.1453 163.969C43.1698 163.923 43.263 163.727 43.3525 163.534C43.4419 163.341 43.5946 163.014 43.6919 162.807C43.7891 162.601 43.9302 162.296 44.0054 162.131C44.1615 161.788 44.3312 161.423 44.6358 160.778C44.8258 160.375 44.9553 160.096 45.2637 159.425C45.3144 159.315 45.4571 159.01 45.581 158.748C45.7048 158.487 45.8741 158.126 45.9571 157.947C46.1448 157.542 46.4005 156.992 46.645 156.468C46.7479 156.248 46.8844 155.955 46.9482 155.817C47.0121 155.679 47.1541 155.375 47.2639 155.141C47.7002 154.209 47.7742 154.05 47.9292 153.712C48.0858 153.371 48.1928 153.142 48.583 152.309C48.7535 151.946 48.8441 151.751 49.2109 150.956C49.2745 150.819 49.4168 150.514 49.527 150.28C49.8589 149.575 50.0465 149.172 50.2272 148.777C50.6579 147.834 50.7694 147.631 50.8699 147.607C50.926 147.593 51.0964 147.545 51.2486 147.499C52.0239 147.267 52.5176 147.128 52.8579 147.046C54.8103 146.575 55.3018 146.502 56.5042 146.501C57.3989 146.501 57.5475 146.513 57.8491 146.61C58.4428 146.8 58.7474 146.978 59.132 147.359L59.4966 147.719V148.027C59.4966 148.329 59.4307 148.501 59.0027 149.315C58.8533 149.599 58.826 149.661 58.7367 149.92C58.6049 150.302 58.6137 150.695 58.7609 151.006C58.9154 151.334 59.4457 151.838 59.7611 151.957C60.1974 152.122 60.8341 151.96 61.2558 151.576C61.662 151.207 61.9622 150.529 61.9597 149.987C61.9576 149.53 61.7266 148.675 61.469 148.172C60.7149 146.698 59.2777 145.731 57.4095 145.44C56.9597 145.37 55.8417 145.309 55.6492 145.344ZM59.8455 156.8C59.7791 156.93 59.7388 157.106 59.7373 157.272C59.7344 157.604 59.8447 157.77 60.262 158.06C60.4296 158.177 60.6636 158.34 60.7822 158.423C61.015 158.585 61.7061 159.078 62.0448 159.323C62.1601 159.407 62.3453 159.54 62.4563 159.62C62.6562 159.763 62.6573 159.766 62.5747 159.895C62.5289 159.967 62.478 160.038 62.4618 160.051C62.4455 160.065 62.3553 160.189 62.2615 160.327C62.1676 160.465 62.0732 160.6 62.0517 160.628C61.9465 160.762 61.6517 161.171 61.3837 161.555C61.2198 161.789 61.0711 161.992 61.0532 162.006C61.0353 162.019 60.9663 162.113 60.8998 162.214C60.7024 162.513 59.8924 163.648 59.7077 163.885C59.6861 163.912 59.5911 164.048 59.4966 164.185C59.4021 164.323 59.3071 164.459 59.2856 164.486C59.1468 164.664 58.8662 165.054 58.6218 165.41C58.4653 165.637 58.3096 165.855 58.2757 165.893C58.2419 165.93 58.1349 166.077 58.0381 166.219C57.7456 166.647 57.0766 167.467 56.7559 167.79C56.1252 168.425 55.2431 169.054 54.5298 169.378C54.288 169.487 54.0562 169.595 54.0147 169.617C53.9732 169.638 53.8035 169.696 53.6375 169.745C53.4715 169.793 53.2678 169.855 53.1849 169.882C52.9839 169.946 51.8713 170.122 51.6581 170.123C51.5653 170.123 51.3276 170.085 51.13 170.037C50.8296 169.965 50.737 169.916 50.5646 169.74C50.3984 169.569 50.3452 169.467 50.2905 169.212C50.2115 168.844 50.2091 168.729 50.2652 168.013C50.309 167.455 50.2488 166.929 50.1098 166.655C50.0464 166.53 49.754 166.214 49.584 166.087C49.4006 165.95 49.1342 165.856 48.8509 165.829C47.963 165.746 47.2036 166.337 46.873 167.368C46.6974 167.915 46.7712 168.436 47.1066 169.017C47.2651 169.292 47.9643 169.995 48.2813 170.199C48.8159 170.542 49.498 170.825 50.1673 170.98C50.5679 171.073 52.2475 171.076 52.7322 170.984C53.5007 170.838 54.1196 170.628 54.9401 170.234C55.1868 170.116 55.3665 170.048 55.3394 170.084C55.3123 170.119 55.2101 170.273 55.1123 170.424C54.7514 170.983 53.7421 172.517 53.4579 172.938L53.1649 173.372L54.1731 174.09C55.2793 174.879 55.4737 175.016 56.1159 175.46C56.3548 175.626 56.5892 175.795 56.6367 175.836C56.6843 175.877 56.8324 175.985 56.9657 176.076C57.0992 176.167 57.4107 176.387 57.658 176.565C57.9054 176.743 58.1144 176.888 58.1225 176.888C58.1307 176.888 58.1999 176.792 58.2763 176.675C58.3528 176.558 58.4892 176.364 58.5796 176.245L58.7438 176.027L58.5544 175.877C58.4502 175.794 58.3198 175.703 58.2644 175.674C58.2091 175.645 58.1299 175.59 58.0884 175.552C58.0033 175.473 56.7055 174.544 56.4162 174.354C56.3125 174.287 56.2276 174.218 56.2276 174.201C56.2276 174.184 56.5275 173.755 56.894 173.246C57.2604 172.738 57.6282 172.224 57.7112 172.104C57.7942 171.985 58.0205 171.669 58.2141 171.402C58.4078 171.136 58.6341 170.821 58.7171 170.703C58.9723 170.338 59.2138 170.001 59.2569 169.948C59.2795 169.921 59.489 169.627 59.7226 169.297C60.3185 168.453 60.3397 168.424 61.2783 167.129C61.3633 167.012 61.5073 166.809 61.5982 166.678C61.689 166.547 61.9429 166.192 62.1622 165.889C62.3814 165.586 62.6353 165.232 62.7261 165.102C62.817 164.972 62.9706 164.756 63.0674 164.622C63.1642 164.488 63.4019 164.155 63.5955 163.883C64.0772 163.205 64.5345 162.735 64.9229 162.519C65.2085 162.36 65.2849 162.34 65.6057 162.34C65.9336 162.34 66.009 162.361 66.4227 162.567C66.6733 162.692 67.0721 162.921 67.3089 163.076C67.5457 163.231 67.7598 163.359 67.7848 163.359C67.8098 163.359 67.9008 163.252 67.9872 163.121C68.0735 162.99 68.2011 162.799 68.2707 162.697L68.3973 162.511L67.9327 162.185C67.2782 161.726 67.1806 161.656 65.8961 160.732C65.7784 160.647 65.5747 160.503 65.4435 160.413C65.3122 160.322 64.9559 160.069 64.6517 159.851C64.3474 159.632 63.9911 159.38 63.8598 159.289C63.7286 159.198 63.5249 159.055 63.4072 158.97C63.2895 158.886 62.9782 158.662 62.7154 158.473C62.4526 158.284 62.1413 158.06 62.0236 157.975C61.9059 157.891 61.7022 157.747 61.571 157.655C61.4397 157.564 61.0494 157.288 60.7037 157.042C60.3579 156.796 60.0472 156.595 60.0131 156.594C59.9791 156.594 59.9037 156.687 59.8455 156.8ZM141.776 159.585C140.852 159.802 139.959 160.184 139.192 160.691C138.508 161.144 137.772 161.924 137.264 162.735C136.991 163.172 136.702 163.961 136.533 164.734C136.437 165.17 136.422 165.391 136.422 166.371L136.421 167.504L136.209 167.198C135.902 166.754 135.809 166.621 135.6 166.331C135.498 166.188 135.267 165.854 135.087 165.59C134.907 165.326 134.726 165.067 134.685 165.014C134.643 164.961 134.507 164.76 134.383 164.567C134.258 164.374 134.131 164.215 134.1 164.213C134.05 164.211 133.502 164.511 133.055 164.787C132.965 164.842 132.66 165.022 132.376 165.188C132.092 165.353 131.8 165.526 131.726 165.573C131.652 165.62 131.535 165.689 131.466 165.727C131.397 165.766 131.08 165.952 130.762 166.142C130.444 166.332 130.124 166.522 130.051 166.564C129.251 167.025 129.052 167.146 129.052 167.172C129.052 167.253 129.3 167.553 129.45 167.654C129.742 167.85 130.138 167.787 130.636 167.466C130.719 167.412 130.821 167.351 130.863 167.33C131.03 167.247 131.953 166.7 132.087 166.606C132.166 166.551 132.248 166.525 132.271 166.548C132.315 166.594 132.392 166.721 132.695 167.248C132.805 167.438 133.033 167.818 133.204 168.094C133.374 168.37 133.562 168.685 133.622 168.796C133.683 168.906 133.771 169.056 133.818 169.13C133.866 169.203 134.041 169.495 134.207 169.778C134.373 170.061 134.559 170.372 134.621 170.471C134.683 170.569 134.75 170.683 134.77 170.724C134.789 170.765 134.989 171.103 135.215 171.476C135.44 171.848 135.736 172.341 135.871 172.571C136.007 172.801 136.163 173.063 136.219 173.153C136.274 173.243 136.45 173.54 136.61 173.812C136.769 174.085 136.922 174.341 136.948 174.383C137.048 174.54 137.685 175.614 137.72 175.686C137.74 175.727 137.784 175.806 137.818 175.861C137.852 175.916 138.012 176.187 138.175 176.462C138.338 176.738 138.513 177.025 138.564 177.099C138.616 177.174 138.658 177.248 138.658 177.264C138.658 177.28 138.7 177.354 138.752 177.429C138.835 177.55 139.44 178.557 139.586 178.818C139.638 178.91 139.921 179.387 140.042 179.585C140.07 179.631 140.236 179.909 140.409 180.203C140.666 180.638 140.742 180.731 140.821 180.711C140.874 180.697 140.944 180.654 140.976 180.616C141.008 180.578 141.051 180.546 141.071 180.546C141.092 180.546 141.378 180.385 141.706 180.189C142.035 179.992 142.376 179.79 142.464 179.741C142.552 179.691 142.959 179.45 143.369 179.206C143.779 178.962 144.247 178.684 144.409 178.589C144.571 178.494 144.809 178.354 144.937 178.277C145.066 178.201 145.216 178.116 145.271 178.09C145.327 178.063 145.508 177.956 145.674 177.853C145.84 177.75 146.06 177.62 146.164 177.566C146.268 177.511 146.353 177.438 146.353 177.402C146.353 177.366 146.262 177.194 146.151 177.019C146.041 176.845 145.95 176.686 145.95 176.666C145.95 176.647 145.922 176.602 145.887 176.568C145.836 176.517 145.797 176.52 145.69 176.584C145.616 176.627 145.325 176.798 145.042 176.963C144.76 177.129 144.455 177.309 144.365 177.364C144.276 177.419 143.99 177.586 143.731 177.734C143.472 177.883 143.2 178.046 143.126 178.098C143.053 178.149 142.968 178.191 142.938 178.191C142.908 178.191 142.814 178.073 142.73 177.928C142.645 177.783 142.549 177.62 142.515 177.566C142.24 177.116 142.112 176.902 141.874 176.496C141.723 176.238 141.577 175.99 141.55 175.945C141.154 175.288 140.736 174.587 140.692 174.508C140.661 174.453 140.496 174.175 140.326 173.89C140.155 173.604 140.016 173.351 140.016 173.326C140.016 173.301 139.995 173.28 139.97 173.28C139.945 173.28 139.9 173.218 139.87 173.143C139.839 173.067 139.714 172.847 139.59 172.654C139.467 172.461 139.332 172.236 139.291 172.153C139.249 172.07 139.158 171.912 139.09 171.802C138.921 171.531 138.723 171.197 138.569 170.925C138.499 170.801 138.403 170.643 138.355 170.574C138.143 170.27 137.664 169.236 137.519 168.77C137.316 168.119 137.25 167.663 137.25 166.933C137.25 166.168 137.278 165.996 137.534 165.188C137.745 164.521 138.209 163.732 138.673 163.251C139.333 162.566 140.732 161.954 141.632 161.956C142.624 161.959 143.77 162.594 144.556 163.575C144.951 164.069 145.296 164.572 145.296 164.653C145.296 164.681 145.315 164.711 145.338 164.72C145.361 164.729 145.514 164.971 145.677 165.257C145.841 165.543 146.021 165.851 146.076 165.941C146.131 166.03 146.3 166.315 146.45 166.573C146.601 166.831 146.742 167.049 146.765 167.058C146.787 167.068 146.805 167.094 146.805 167.118C146.805 167.141 146.96 167.419 147.149 167.734C147.339 168.049 147.509 168.338 147.529 168.376C147.548 168.414 147.591 168.49 147.625 168.545C147.659 168.6 147.822 168.871 147.988 169.146C148.153 169.422 148.316 169.693 148.349 169.748C148.383 169.803 148.434 169.893 148.464 169.948C148.493 170.003 148.674 170.308 148.867 170.625C149.059 170.941 149.348 171.423 149.507 171.694C149.667 171.965 149.849 172.269 149.912 172.37C149.975 172.471 150.054 172.61 150.087 172.679C150.12 172.748 150.161 172.816 150.178 172.829C150.195 172.843 150.297 173.008 150.405 173.196C150.514 173.384 150.625 173.577 150.653 173.623C150.68 173.67 150.813 173.895 150.948 174.122C151.203 174.556 151.256 174.584 151.482 174.414C151.524 174.383 151.614 174.325 151.684 174.286C151.877 174.176 152.834 173.616 152.984 173.526C153.545 173.188 154.161 172.829 154.18 172.829C154.192 172.829 154.23 172.806 154.263 172.778C154.324 172.726 155.422 172.076 155.558 172.011C155.599 171.992 155.7 171.933 155.783 171.879C155.866 171.826 156.098 171.689 156.3 171.575C156.617 171.395 156.662 171.353 156.633 171.259C156.615 171.199 156.572 171.117 156.537 171.076C156.502 171.034 156.401 170.871 156.312 170.712C156.223 170.554 156.142 170.424 156.132 170.424C156.114 170.424 155.939 170.526 154.802 171.201C154.511 171.374 154.206 171.552 154.123 171.597C154.04 171.643 153.904 171.724 153.821 171.777C153.585 171.929 153.385 172.037 153.372 172.019C153.361 172.004 152.843 171.136 152.715 170.917C152.687 170.87 152.585 170.7 152.488 170.54C152.392 170.38 152.303 170.226 152.292 170.199C152.28 170.171 152.165 169.979 152.036 169.773C151.907 169.566 151.717 169.25 151.614 169.071C151.511 168.892 151.371 168.655 151.303 168.545C151.234 168.435 151.151 168.288 151.118 168.219C151.084 168.15 151.045 168.083 151.029 168.069C151.014 168.055 150.901 167.875 150.777 167.668C150.654 167.461 150.525 167.247 150.492 167.192C150.458 167.137 150.414 167.058 150.394 167.017C150.373 166.975 150.203 166.687 150.014 166.375C149.826 166.064 149.672 165.788 149.672 165.762C149.672 165.735 149.649 165.714 149.622 165.714C149.594 165.714 149.571 165.693 149.571 165.668C149.571 165.631 149.315 165.186 148.872 164.453C148.828 164.38 148.681 164.132 148.546 163.902C147.863 162.739 147.313 162.007 146.55 161.25C145.316 160.024 144.154 159.494 142.716 159.504C142.357 159.507 141.967 159.54 141.776 159.585ZM69.7061 163.504C68.6354 163.687 67.7915 164.451 66.9664 165.984C66.7288 166.426 66.7002 166.516 66.7969 166.516C66.8552 166.516 67.2952 166.704 67.5604 166.842C67.6939 166.912 67.7092 166.909 67.7977 166.804C67.8497 166.742 67.8929 166.674 67.8939 166.652C67.8958 166.609 68.3487 165.852 68.396 165.814C68.413 165.8 68.5093 165.676 68.61 165.538C68.9445 165.081 69.3401 164.767 69.7537 164.633C70.0878 164.524 70.349 164.591 70.6089 164.854C71.1135 165.364 71.0146 166.148 70.2065 168.044C70.183 168.099 70.0826 168.347 69.9835 168.595C69.8843 168.843 69.7829 169.091 69.7582 169.146C69.7336 169.201 69.6539 169.404 69.5813 169.597C69.4678 169.899 69.2436 170.458 69.0996 170.8C69.0763 170.855 68.9761 171.103 68.877 171.351C68.7778 171.599 68.6771 171.847 68.6531 171.902C68.6291 171.957 68.548 172.16 68.473 172.353C68.3469 172.677 68.1198 173.246 67.9722 173.606C67.9383 173.689 67.8823 173.835 67.8477 173.932C67.8131 174.028 67.7652 174.152 67.7413 174.207C67.7175 174.263 67.6168 174.511 67.5176 174.759C67.4185 175.007 67.3177 175.255 67.2937 175.31C67.2698 175.365 67.2382 175.455 67.2236 175.51C67.209 175.565 67.1496 175.746 67.0917 175.911C66.6727 177.108 66.6156 178.394 66.9285 179.595C66.979 179.789 67.3745 180.652 67.4326 180.695C67.4526 180.71 67.5344 180.822 67.6143 180.945C67.9056 181.392 68.8099 182.221 69.4032 182.584C69.7119 182.773 70.7737 183.29 71.1394 183.429C71.3331 183.503 71.5594 183.591 71.6424 183.625C71.856 183.712 73.0519 184.08 73.3523 184.151C75.0303 184.548 76.4908 184.478 77.5267 183.953C78.1566 183.634 78.5582 183.249 78.8013 182.732C79.2456 181.788 78.8997 180.981 77.889 180.605C77.5467 180.477 77.3646 180.47 77.025 180.573C76.655 180.685 76.4824 180.825 75.6933 181.652C74.9051 182.478 74.7094 182.633 74.249 182.8C73.9742 182.899 73.8677 182.91 73.3186 182.891C72.837 182.874 72.6255 182.844 72.3716 182.753C72.0077 182.624 71.3183 182.264 71.2149 182.149C71.2011 182.134 71.0766 182.039 70.9383 181.939C70.6547 181.733 70.3824 181.457 70.2068 181.198C70.1415 181.101 70.0731 181.011 70.0548 180.997C69.9864 180.946 69.7464 180.386 69.6524 180.058C69.509 179.559 69.5199 178.794 69.6807 178.075C69.7497 177.767 69.843 177.424 69.8879 177.314C69.9329 177.204 69.9883 177.069 70.0112 177.014C70.0341 176.958 70.1016 176.789 70.1613 176.638C70.2209 176.486 70.2889 176.317 70.3123 176.262C70.3357 176.207 70.4356 175.959 70.5342 175.711C70.6328 175.463 70.7357 175.221 70.763 175.173C70.7903 175.125 70.8129 175.057 70.8133 175.022C70.8161 174.796 70.9001 174.809 71.8687 175.184C72.0208 175.242 72.3733 175.367 72.652 175.46C72.9306 175.553 73.2135 175.652 73.2806 175.679C73.3477 175.707 73.5384 175.767 73.7044 175.813C73.8704 175.859 74.0627 175.913 74.1319 175.934C76.7367 176.72 78.8693 176.89 80.6648 176.457C80.8418 176.414 81.0228 176.362 81.0672 176.342C81.9073 175.955 82.0629 175.854 82.5334 175.386C83.2844 174.64 83.752 173.728 83.9885 172.55C84.0868 172.06 84.035 170.925 83.8961 170.524C83.7682 170.155 83.542 169.704 83.3183 169.372C82.9947 168.891 82.168 168.146 81.4989 167.732C81.0157 167.432 80.1962 167.127 79.3624 166.936C78.847 166.818 78.6826 166.804 77.8536 166.804C76.9859 166.805 76.8824 166.816 76.3196 166.957C75.21 167.236 74.4549 167.6 73.7572 168.191C73.5927 168.331 73.4717 168.422 73.4884 168.395C73.5677 168.264 73.6792 167.357 73.6792 166.844C73.6792 165.348 73.1031 164.42 71.7974 163.812C71.6176 163.728 71.4384 163.659 71.3992 163.659C71.3599 163.659 71.2487 163.626 71.152 163.586C70.9457 163.5 70.0324 163.449 69.7061 163.504ZM127.769 166.941C127.742 166.951 127.515 167.02 127.266 167.095C127.017 167.17 126.576 167.305 126.286 167.396C125.995 167.486 125.486 167.644 125.154 167.747C124.822 167.85 124.384 167.987 124.18 168.052C123.975 168.116 123.778 168.169 123.741 168.169C123.704 168.169 123.6 168.201 123.509 168.239C123.418 168.278 123.117 168.377 122.841 168.46C122.361 168.604 121.407 168.901 120.609 169.154C120.405 169.219 120.207 169.272 120.17 169.272C120.133 169.272 120.029 169.303 119.938 169.342C119.847 169.38 119.542 169.483 119.26 169.57L118.746 169.729L118.83 169.914C118.979 170.244 119.136 170.418 119.334 170.471C119.63 170.549 119.939 170.488 121.08 170.126C121.357 170.039 121.724 169.925 121.895 169.874L122.207 169.781L122.285 170.002C122.407 170.349 122.495 170.624 122.587 170.95C122.634 171.116 122.692 171.307 122.716 171.376C122.739 171.445 122.852 171.806 122.966 172.178C123.08 172.55 123.203 172.945 123.239 173.055C123.275 173.165 123.345 173.391 123.393 173.556C123.442 173.721 123.513 173.931 123.551 174.021C123.589 174.112 123.62 174.216 123.62 174.253C123.62 174.29 123.674 174.486 123.74 174.69C123.806 174.893 123.953 175.364 124.067 175.736C124.182 176.108 124.299 176.48 124.328 176.563C124.357 176.645 124.415 176.826 124.455 176.963C124.584 177.397 124.616 177.503 124.767 177.991C124.849 178.253 125.022 178.816 125.153 179.243C125.284 179.671 125.419 180.099 125.454 180.196C125.489 180.292 125.558 180.506 125.607 180.672C125.655 180.837 125.725 181.062 125.761 181.173C125.797 181.283 125.898 181.61 125.986 181.899C126.074 182.189 126.174 182.516 126.209 182.626C126.245 182.736 126.325 182.995 126.387 183.202C126.45 183.409 126.566 183.781 126.645 184.029C126.724 184.277 126.82 184.581 126.858 184.705C126.896 184.829 126.989 185.134 127.065 185.382C127.141 185.63 127.243 185.957 127.292 186.109C127.34 186.26 127.431 186.553 127.494 186.76C127.556 186.967 127.673 187.339 127.752 187.587C127.831 187.835 127.933 188.162 127.978 188.313C128.023 188.465 128.078 188.645 128.1 188.714C128.122 188.783 128.233 189.144 128.347 189.516C128.461 189.888 128.584 190.283 128.62 190.393C128.657 190.503 128.726 190.729 128.775 190.894C128.823 191.059 128.894 191.269 128.932 191.359C128.97 191.45 129.002 191.554 129.002 191.591C129.002 191.628 129.055 191.824 129.121 192.028C129.187 192.231 129.335 192.702 129.449 193.074C129.563 193.446 129.681 193.818 129.711 193.901C129.741 193.983 129.788 194.147 129.815 194.264C129.871 194.503 129.931 194.523 130.245 194.406C130.404 194.347 130.99 194.164 131.642 193.97C131.725 193.946 132.008 193.858 132.271 193.775C132.533 193.692 132.873 193.587 133.025 193.542C133.177 193.497 133.358 193.443 133.427 193.421C133.496 193.399 133.893 193.277 134.307 193.149C134.722 193.022 135.118 192.899 135.188 192.876C135.257 192.854 135.445 192.794 135.605 192.743C135.859 192.662 135.893 192.637 135.865 192.549C135.847 192.493 135.801 192.346 135.763 192.222C135.724 192.098 135.665 191.915 135.632 191.816L135.57 191.636L135.09 191.784C134.825 191.865 134.394 191.999 134.131 192.08C133.573 192.253 133.442 192.293 133.092 192.391C132.949 192.432 132.784 192.49 132.726 192.521C132.639 192.567 132.616 192.562 132.592 192.487C132.577 192.438 132.534 192.318 132.498 192.222C132.462 192.126 132.365 191.821 132.281 191.545C132.126 191.036 131.758 189.855 131.641 189.491C131.606 189.381 131.552 189.2 131.521 189.09C131.49 188.98 131.365 188.574 131.243 188.188C131.121 187.802 130.961 187.284 130.886 187.036C130.811 186.788 130.722 186.506 130.687 186.409C130.653 186.313 130.585 186.099 130.536 185.933C130.488 185.768 130.43 185.576 130.409 185.507C130.084 184.473 129.876 183.801 129.771 183.453C129.701 183.218 129.615 182.948 129.581 182.851C129.525 182.696 129.43 182.387 129.296 181.924C129.272 181.842 129.188 181.571 129.108 181.323C129.028 181.075 128.902 180.669 128.828 180.421C128.754 180.173 128.661 179.869 128.621 179.745C128.39 179.023 128.255 178.591 128.199 178.392C128.165 178.268 128.106 178.076 128.07 177.966C128.034 177.855 127.91 177.461 127.796 177.089C127.681 176.717 127.558 176.322 127.522 176.212C127.485 176.102 127.416 175.876 127.367 175.711C127.318 175.545 127.25 175.331 127.215 175.235C127.18 175.138 127.127 174.969 127.097 174.859C127.035 174.632 126.766 173.758 126.664 173.456C126.627 173.346 126.536 173.052 126.461 172.804C126.386 172.556 126.296 172.263 126.26 172.153C126.225 172.043 126.168 171.851 126.134 171.727C126.099 171.603 126.042 171.411 126.005 171.301C125.826 170.759 125.783 170.507 125.784 170.016C125.786 168.993 126.061 168.716 127.694 168.093C127.791 168.056 127.938 168.005 128.021 167.979C128.201 167.924 128.202 167.841 128.025 167.3C127.914 166.958 127.877 166.906 127.769 166.941ZM76.3196 168.142C75.8411 168.225 75.2797 168.399 74.8863 168.587C74.7065 168.673 74.5481 168.758 74.5342 168.775C74.5204 168.792 74.4551 168.834 74.389 168.869C74.2051 168.965 73.523 169.495 73.3424 169.682C73.0905 169.942 72.631 170.534 72.5521 170.7C72.4264 170.964 72.3213 171.215 72.3213 171.251C72.3213 171.27 72.29 171.357 72.2516 171.444C72.2133 171.531 72.1201 171.76 72.0446 171.952C71.969 172.145 71.8881 172.348 71.8646 172.403C71.8411 172.459 71.7412 172.707 71.6426 172.955C71.544 173.203 71.4414 173.445 71.4146 173.493C71.3222 173.657 71.359 173.762 71.5292 173.82C71.6191 173.85 71.885 173.945 72.1202 174.03C72.4933 174.166 73.4314 174.482 74.1319 174.706C74.4613 174.812 75.2524 175.017 75.7161 175.117C76.2785 175.239 77.7639 175.241 78.145 175.122C78.7209 174.941 79.0713 174.727 79.5171 174.285C79.8709 173.934 79.9851 173.78 80.1512 173.431C80.3826 172.944 80.5779 172.354 80.6674 171.87C80.7427 171.463 80.7459 170.748 80.6732 170.558C80.6438 170.481 80.6197 170.376 80.6197 170.324C80.6197 170.076 80.2959 169.54 79.9208 169.167C79.7105 168.957 79.4774 168.755 79.4029 168.716C78.6628 168.33 78.4429 168.253 77.7744 168.144C77.2493 168.058 76.8094 168.058 76.3196 168.142ZM116.931 170.057C116.162 170.182 115.606 170.266 115.146 170.324C114.897 170.355 114.478 170.412 114.215 170.45C113.953 170.488 113.494 170.554 113.197 170.597C112.899 170.639 112.424 170.707 112.141 170.747C111.857 170.787 111.444 170.845 111.223 170.875C110.663 170.951 109.852 171.067 109.287 171.151C109.024 171.19 108.64 171.247 108.434 171.277C108.227 171.306 108.05 171.339 108.039 171.35C108.011 171.378 108.122 171.722 108.221 171.916C108.32 172.11 108.633 172.278 108.895 172.278C108.994 172.278 109.241 172.246 109.445 172.207C109.648 172.168 110.052 172.109 110.343 172.075C110.633 172.042 110.967 171.997 111.085 171.977L111.298 171.94V172.119C111.298 172.217 111.331 172.502 111.372 172.751C111.492 173.496 111.593 174.179 111.652 174.658C111.682 174.906 111.738 175.312 111.775 175.56C111.813 175.808 111.881 176.282 111.927 176.613C111.973 176.943 112.041 177.406 112.079 177.64C112.116 177.874 112.173 178.269 112.204 178.517C112.235 178.765 112.293 179.182 112.331 179.444C112.454 180.279 112.676 181.832 112.757 182.425C112.83 182.963 112.947 183.774 113.033 184.355C113.151 185.14 113.251 185.856 113.31 186.334C113.341 186.582 113.397 186.965 113.435 187.186C113.473 187.406 113.518 187.734 113.536 187.914C113.578 188.353 113.587 188.362 113.889 188.312C114.027 188.289 114.412 188.233 114.743 188.187C115.075 188.142 115.551 188.075 115.8 188.038C116.049 188.001 116.456 187.945 116.705 187.913C116.954 187.882 117.361 187.825 117.61 187.788C117.859 187.751 118.334 187.682 118.666 187.635C118.998 187.588 119.428 187.524 119.622 187.492L119.974 187.434L119.968 187.185C119.964 187.048 119.935 186.809 119.903 186.655L119.844 186.375L119.507 186.435C119.321 186.468 118.943 186.522 118.666 186.555C118.39 186.588 117.96 186.647 117.711 186.686C116.93 186.81 116.606 186.849 116.567 186.826C116.546 186.814 116.529 186.732 116.53 186.644C116.53 186.556 116.495 186.259 116.452 185.983C116.332 185.221 116.238 184.575 116.178 184.104C116.121 183.662 116.023 182.97 115.9 182.15C115.808 181.537 115.693 180.728 115.624 180.221C115.535 179.563 115.379 178.468 115.198 177.239C115.159 176.977 115.102 176.56 115.07 176.312C115.039 176.064 114.981 175.658 114.942 175.41C114.745 174.148 114.711 173.837 114.711 173.318C114.712 172.696 114.77 172.466 115.024 172.071C115.181 171.828 115.379 171.653 115.656 171.51C115.837 171.417 116.59 171.219 117.107 171.127C117.699 171.023 117.669 171.038 117.65 170.859C117.584 170.254 117.517 169.973 117.44 169.98C117.395 169.984 117.166 170.018 116.931 170.057ZM85.853 170.338C85.8611 171.086 86.0927 171.198 87.9122 171.329C88.2579 171.354 88.6052 171.388 88.6839 171.405L88.827 171.436L88.7959 171.845C88.7428 172.543 88.6662 173.424 88.5906 174.207C88.5507 174.621 88.483 175.331 88.4402 175.786C88.3974 176.241 88.3299 176.951 88.2902 177.364C88.2505 177.778 88.1936 178.42 88.1639 178.792C88.1341 179.165 88.0775 179.796 88.0379 180.196C87.8809 181.783 87.8617 182.046 87.8618 182.605C87.862 183.855 88.0999 184.936 88.583 185.883C88.6956 186.104 88.8 186.295 88.8152 186.309C88.8304 186.323 88.9107 186.435 88.9936 186.557C89.2164 186.888 90.007 187.659 90.3716 187.901C90.5466 188.018 90.7024 188.113 90.7177 188.113C90.7332 188.113 90.7815 188.144 90.8252 188.182C90.938 188.281 91.8909 188.635 92.3379 188.745C92.8642 188.874 94.5184 188.875 95.0035 188.746C95.7344 188.552 95.8654 188.505 96.4117 188.24C97.1553 187.881 97.5202 187.616 98.1741 186.964C98.7388 186.4 99.0357 186.023 99.4118 185.392C99.5983 185.08 99.6781 184.98 99.6592 185.081C99.6438 185.164 99.6088 185.795 99.5813 186.484C99.5538 187.173 99.5083 188.017 99.4801 188.359C99.4519 188.701 99.4378 188.99 99.4488 189.001C99.4597 189.012 99.7268 189.04 100.042 189.064C100.358 189.088 100.841 189.131 101.117 189.16C101.392 189.189 102.002 189.248 102.472 189.291C102.942 189.334 103.666 189.402 104.081 189.441C104.496 189.481 104.975 189.523 105.145 189.534L105.454 189.556L105.516 189.054C105.566 188.645 105.566 188.545 105.512 188.512C105.476 188.49 105.23 188.458 104.965 188.44C104.7 188.423 104.196 188.376 103.845 188.336C103.493 188.296 103.086 188.263 102.939 188.263C102.46 188.261 102.462 188.264 102.503 187.822C102.523 187.61 102.576 187.042 102.621 186.56C102.71 185.601 102.814 184.494 102.925 183.327C102.965 182.914 103.021 182.283 103.05 181.924C103.08 181.566 103.138 180.969 103.178 180.596C103.219 180.224 103.252 179.841 103.251 179.745C103.25 179.648 103.284 179.253 103.325 178.868C103.366 178.482 103.435 177.794 103.478 177.339C103.521 176.885 103.578 176.287 103.605 176.011C103.632 175.736 103.654 175.416 103.654 175.3C103.654 174.864 103.913 174.009 104.15 173.665C104.522 173.128 105.197 172.935 106.374 173.03C106.687 173.056 106.95 173.069 106.959 173.061C106.968 173.052 107.004 172.818 107.04 172.541L107.105 172.037L106.926 172.009C106.827 171.993 106.577 171.968 106.37 171.952C106.162 171.936 105.676 171.892 105.288 171.853C104.901 171.814 104.177 171.745 103.679 171.701C103.181 171.656 102.457 171.589 102.07 171.551C101.682 171.513 101.06 171.458 100.687 171.427C100.313 171.397 99.6681 171.339 99.2532 171.3C98.0019 171.18 97.9763 171.18 97.9462 171.274C97.9315 171.32 97.9424 171.478 97.9703 171.624C97.9982 171.771 98.021 171.896 98.021 171.901C98.021 171.956 98.2771 172.183 98.384 172.223C98.5531 172.287 99.5373 172.41 100.204 172.451C100.477 172.468 100.715 172.49 100.733 172.501C100.75 172.512 100.748 172.697 100.727 172.913C100.654 173.676 100.537 174.92 100.459 175.761C100.416 176.229 100.349 176.94 100.309 177.339C100.27 177.739 100.213 178.37 100.184 178.742C100.155 179.114 100.097 179.723 100.056 180.095C100.015 180.467 99.9815 180.873 99.9821 180.997C99.9827 181.121 99.9474 181.426 99.9038 181.674C99.8321 182.081 99.7928 182.255 99.6216 182.927C99.5935 183.037 99.5387 183.201 99.4999 183.292C99.461 183.382 99.4292 183.478 99.4292 183.504C99.4292 183.629 98.9402 184.544 98.6794 184.908C97.2918 186.842 95.0864 187.632 93.2065 186.869C92.5497 186.603 92.1063 186.252 91.7368 185.708C91.0882 184.752 90.8668 183.569 91.0289 181.924C91.056 181.649 91.1135 181.04 91.1568 180.571C91.2 180.103 91.268 179.381 91.3079 178.968C91.436 177.64 91.5291 176.629 91.5845 175.961C91.7834 173.565 91.8787 173.079 92.2545 172.543C92.6018 172.048 93.1122 171.898 94.3046 171.942L95.0894 171.971L95.1226 171.466C95.1409 171.188 95.1496 170.954 95.1419 170.946C95.1247 170.929 94.493 170.867 91.6213 170.598C91.1718 170.556 90.4645 170.49 90.0496 170.45C89.6347 170.41 88.9897 170.354 88.6163 170.324C88.2428 170.295 87.6205 170.239 87.2332 170.199C86.8459 170.16 86.3764 170.117 86.1896 170.103L85.8501 170.077L85.853 170.338ZM115.674 191.846C115.522 191.882 115.318 191.941 115.221 191.977C114.949 192.079 114.541 192.397 114.412 192.608C114.348 192.712 114.283 192.81 114.267 192.823C114.21 192.872 114.065 193.253 113.99 193.548C113.89 193.939 113.895 194.223 114.008 194.658C114.24 195.545 114.717 196.03 115.611 196.284C116.048 196.409 116.356 196.407 116.827 196.275C117.341 196.132 117.514 196.035 117.82 195.721C118.311 195.216 118.461 194.823 118.459 194.051C118.458 193.478 118.402 193.23 118.187 192.842C117.744 192.045 116.66 191.615 115.674 191.846Z" fill="#C2BBB5"/>
</svg>
